<svg width="39" height="39" viewBox="0 0 39 39" fill="none" xmlns="http://www.w3.org/2000/svg">
<g clip-path="url(#clip0_580_184)">
<rect width="38" height="38" transform="translate(0.199219 0.200012)" fill="white"/>
<path d="M2.0987 10.9667H0.832031V12.2334H2.0987V10.9667Z" fill="#131313"/>
<path d="M2.0987 12.2334H0.832031V13.5001H2.0987V12.2334Z" fill="#131313"/>
<path d="M2.0987 14.7667H0.832031V16.0334H2.0987V14.7667Z" fill="#131313"/>
<path d="M2.0987 17.3H0.832031V18.5667H2.0987V17.3Z" fill="#131313"/>
<path d="M2.0987 18.5667H0.832031V19.8334H2.0987V18.5667Z" fill="#131313"/>
<path d="M2.0987 19.8334H0.832031V21.1H2.0987V19.8334Z" fill="#131313"/>
<path d="M2.0987 22.3667H0.832031V23.6334H2.0987V22.3667Z" fill="#131313"/>
<path d="M2.0987 23.6334H0.832031V24.9H2.0987V23.6334Z" fill="#131313"/>
<path d="M3.36628 12.2334H2.09961V13.5001H3.36628V12.2334Z" fill="#131313"/>
<path d="M3.36628 13.5001H2.09961V14.7667H3.36628V13.5001Z" fill="#131313"/>
<path d="M3.36628 21.1H2.09961V22.3667H3.36628V21.1Z" fill="#131313"/>
<path d="M3.36628 22.3667H2.09961V23.6334H3.36628V22.3667Z" fill="#131313"/>
<path d="M3.36628 23.6334H2.09961V24.9H3.36628V23.6334Z" fill="#131313"/>
<path d="M3.36628 24.9H2.09961V26.1667H3.36628V24.9Z" fill="#131313"/>
<path d="M4.6319 10.9667H3.36523V12.2334H4.6319V10.9667Z" fill="#131313"/>
<path d="M4.6319 13.5001H3.36523V14.7667H4.6319V13.5001Z" fill="#131313"/>
<path d="M4.6319 16.0334H3.36523V17.3001H4.6319V16.0334Z" fill="#131313"/>
<path d="M4.6319 19.8334H3.36523V21.1H4.6319V19.8334Z" fill="#131313"/>
<path d="M4.6319 21.1H3.36523V22.3667H4.6319V21.1Z" fill="#131313"/>
<path d="M4.6319 22.3667H3.36523V23.6334H4.6319V22.3667Z" fill="#131313"/>
<path d="M4.6319 24.9H3.36523V26.1667H4.6319V24.9Z" fill="#131313"/>
<path d="M4.6319 26.1667H3.36523V27.4334H4.6319V26.1667Z" fill="#131313"/>
<path d="M5.89948 10.9667H4.63281V12.2334H5.89948V10.9667Z" fill="#131313"/>
<path d="M5.89948 13.5001H4.63281V14.7667H5.89948V13.5001Z" fill="#131313"/>
<path d="M5.89948 17.3H4.63281V18.5667H5.89948V17.3Z" fill="#131313"/>
<path d="M5.89948 19.8334H4.63281V21.1H5.89948V19.8334Z" fill="#131313"/>
<path d="M5.89948 21.1H4.63281V22.3667H5.89948V21.1Z" fill="#131313"/>
<path d="M5.89948 23.6334H4.63281V24.9H5.89948V23.6334Z" fill="#131313"/>
<path d="M7.1651 12.2334H5.89844V13.5001H7.1651V12.2334Z" fill="#131313"/>
<path d="M7.1651 13.5001H5.89844V14.7667H7.1651V13.5001Z" fill="#131313"/>
<path d="M7.1651 17.3H5.89844V18.5667H7.1651V17.3Z" fill="#131313"/>
<path d="M7.1651 21.1H5.89844V22.3667H7.1651V21.1Z" fill="#131313"/>
<path d="M7.1651 26.1667H5.89844V27.4334H7.1651V26.1667Z" fill="#131313"/>
<path d="M8.43268 10.9667H7.16602V12.2334H8.43268V10.9667Z" fill="#131313"/>
<path d="M8.43268 17.3H7.16602V18.5667H8.43268V17.3Z" fill="#131313"/>
<path d="M8.43268 19.8334H7.16602V21.1H8.43268V19.8334Z" fill="#131313"/>
<path d="M8.43268 21.1H7.16602V22.3667H8.43268V21.1Z" fill="#131313"/>
<path d="M8.43268 24.9H7.16602V26.1667H8.43268V24.9Z" fill="#131313"/>
<path d="M9.69831 10.9667H8.43164V12.2334H9.69831V10.9667Z" fill="#131313"/>
<path d="M9.69831 13.5001H8.43164V14.7667H9.69831V13.5001Z" fill="#131313"/>
<path d="M9.69831 16.0334H8.43164V17.3001H9.69831V16.0334Z" fill="#131313"/>
<path d="M9.69831 18.5667H8.43164V19.8334H9.69831V18.5667Z" fill="#131313"/>
<path d="M9.69831 21.1H8.43164V22.3667H9.69831V21.1Z" fill="#131313"/>
<path d="M9.69831 23.6334H8.43164V24.9H9.69831V23.6334Z" fill="#131313"/>
<path d="M9.69831 26.1667H8.43164V27.4334H9.69831V26.1667Z" fill="#131313"/>
<path d="M10.9659 10.9667H9.69922V12.2334H10.9659V10.9667Z" fill="#131313"/>
<path d="M10.9659 16.0334H9.69922V17.3001H10.9659V16.0334Z" fill="#131313"/>
<path d="M10.9659 17.3H9.69922V18.5667H10.9659V17.3Z" fill="#131313"/>
<path d="M10.9659 22.3667H9.69922V23.6334H10.9659V22.3667Z" fill="#131313"/>
<path d="M10.9659 23.6334H9.69922V24.9H10.9659V23.6334Z" fill="#131313"/>
<path d="M10.9659 26.1667H9.69922V27.4334H10.9659V26.1667Z" fill="#131313"/>
<path d="M12.2315 2.10004H10.9648V3.3667H12.2315V2.10004Z" fill="#131313"/>
<path d="M12.2315 4.63336H10.9648V5.90003H12.2315V4.63336Z" fill="#131313"/>
<path d="M12.2315 7.16669H10.9648V8.43335H12.2315V7.16669Z" fill="#131313"/>
<path d="M12.2315 8.43335H10.9648V9.70002H12.2315V8.43335Z" fill="#131313"/>
<path d="M12.2315 9.70001H10.9648V10.9667H12.2315V9.70001Z" fill="#131313"/>
<path d="M12.2315 10.9667H10.9648V12.2334H12.2315V10.9667Z" fill="#131313"/>
<path d="M12.2315 12.2334H10.9648V13.5001H12.2315V12.2334Z" fill="#131313"/>
<path d="M12.2315 14.7667H10.9648V16.0334H12.2315V14.7667Z" fill="#131313"/>
<path d="M12.2315 16.0334H10.9648V17.3001H12.2315V16.0334Z" fill="#131313"/>
<path d="M12.2315 18.5667H10.9648V19.8334H12.2315V18.5667Z" fill="#131313"/>
<path d="M12.2315 21.1H10.9648V22.3667H12.2315V21.1Z" fill="#131313"/>
<path d="M12.2315 22.3667H10.9648V23.6334H12.2315V22.3667Z" fill="#131313"/>
<path d="M12.2315 23.6334H10.9648V24.9H12.2315V23.6334Z" fill="#131313"/>
<path d="M12.2315 27.4333H10.9648V28.7H12.2315V27.4333Z" fill="#131313"/>
<path d="M12.2315 28.7H10.9648V29.9667H12.2315V28.7Z" fill="#131313"/>
<path d="M12.2315 29.9667H10.9648V31.2334H12.2315V29.9667Z" fill="#131313"/>
<path d="M12.2315 32.5001H10.9648V33.7667H12.2315V32.5001Z" fill="#131313"/>
<path d="M12.2315 33.7667H10.9648V35.0334H12.2315V33.7667Z" fill="#131313"/>
<path d="M12.2315 36.3H10.9648V37.5667H12.2315V36.3Z" fill="#131313"/>
<path d="M13.4991 0.833374H12.2324V2.10004H13.4991V0.833374Z" fill="#131313"/>
<path d="M13.4991 2.10004H12.2324V3.3667H13.4991V2.10004Z" fill="#131313"/>
<path d="M13.4991 4.63336H12.2324V5.90003H13.4991V4.63336Z" fill="#131313"/>
<path d="M13.4991 5.90002H12.2324V7.16669H13.4991V5.90002Z" fill="#131313"/>
<path d="M13.4991 7.16669H12.2324V8.43335H13.4991V7.16669Z" fill="#131313"/>
<path d="M13.4991 10.9667H12.2324V12.2334H13.4991V10.9667Z" fill="#131313"/>
<path d="M13.4991 13.5001H12.2324V14.7667H13.4991V13.5001Z" fill="#131313"/>
<path d="M13.4991 17.3H12.2324V18.5667H13.4991V17.3Z" fill="#131313"/>
<path d="M13.4991 22.3667H12.2324V23.6334H13.4991V22.3667Z" fill="#131313"/>
<path d="M13.4991 23.6334H12.2324V24.9H13.4991V23.6334Z" fill="#131313"/>
<path d="M13.4991 24.9H12.2324V26.1667H13.4991V24.9Z" fill="#131313"/>
<path d="M13.4991 27.4333H12.2324V28.7H13.4991V27.4333Z" fill="#131313"/>
<path d="M13.4991 33.7667H12.2324V35.0334H13.4991V33.7667Z" fill="#131313"/>
<path d="M13.4991 36.3H12.2324V37.5667H13.4991V36.3Z" fill="#131313"/>
<path d="M14.7647 3.3667H13.498V4.63337H14.7647V3.3667Z" fill="#131313"/>
<path d="M14.7647 4.63336H13.498V5.90003H14.7647V4.63336Z" fill="#131313"/>
<path d="M14.7647 7.16669H13.498V8.43335H14.7647V7.16669Z" fill="#131313"/>
<path d="M14.7647 8.43335H13.498V9.70002H14.7647V8.43335Z" fill="#131313"/>
<path d="M14.7647 9.70001H13.498V10.9667H14.7647V9.70001Z" fill="#131313"/>
<path d="M14.7647 13.5001H13.498V14.7667H14.7647V13.5001Z" fill="#131313"/>
<path d="M14.7647 14.7667H13.498V16.0334H14.7647V14.7667Z" fill="#131313"/>
<path d="M14.7647 23.6334H13.498V24.9H14.7647V23.6334Z" fill="#131313"/>
<path d="M14.7647 24.9H13.498V26.1667H14.7647V24.9Z" fill="#131313"/>
<path d="M14.7647 26.1667H13.498V27.4334H14.7647V26.1667Z" fill="#131313"/>
<path d="M14.7647 28.7H13.498V29.9667H14.7647V28.7Z" fill="#131313"/>
<path d="M14.7647 29.9667H13.498V31.2334H14.7647V29.9667Z" fill="#131313"/>
<path d="M14.7647 35.0334H13.498V36.3001H14.7647V35.0334Z" fill="#131313"/>
<path d="M16.0323 4.63336H14.7656V5.90003H16.0323V4.63336Z" fill="#131313"/>
<path d="M16.0323 12.2334H14.7656V13.5001H16.0323V12.2334Z" fill="#131313"/>
<path d="M16.0323 13.5001H14.7656V14.7667H16.0323V13.5001Z" fill="#131313"/>
<path d="M16.0323 16.0334H14.7656V17.3001H16.0323V16.0334Z" fill="#131313"/>
<path d="M16.0323 18.5667H14.7656V19.8334H16.0323V18.5667Z" fill="#131313"/>
<path d="M16.0323 23.6334H14.7656V24.9H16.0323V23.6334Z" fill="#131313"/>
<path d="M16.0323 26.1667H14.7656V27.4334H16.0323V26.1667Z" fill="#131313"/>
<path d="M16.0323 27.4333H14.7656V28.7H16.0323V27.4333Z" fill="#131313"/>
<path d="M16.0323 28.7H14.7656V29.9667H16.0323V28.7Z" fill="#131313"/>
<path d="M16.0323 29.9667H14.7656V31.2334H16.0323V29.9667Z" fill="#131313"/>
<path d="M16.0323 33.7667H14.7656V35.0334H16.0323V33.7667Z" fill="#131313"/>
<path d="M16.0323 35.0334H14.7656V36.3001H16.0323V35.0334Z" fill="#131313"/>
<path d="M17.2979 2.10004H16.0312V3.3667H17.2979V2.10004Z" fill="#131313"/>
<path d="M17.2979 8.43335H16.0312V9.70002H17.2979V8.43335Z" fill="#131313"/>
<path d="M17.2979 10.9667H16.0312V12.2334H17.2979V10.9667Z" fill="#131313"/>
<path d="M17.2979 13.5001H16.0312V14.7667H17.2979V13.5001Z" fill="#131313"/>
<path d="M17.2979 14.7667H16.0312V16.0334H17.2979V14.7667Z" fill="#131313"/>
<path d="M17.2979 18.5667H16.0312V19.8334H17.2979V18.5667Z" fill="#131313"/>
<path d="M17.2979 19.8334H16.0312V21.1H17.2979V19.8334Z" fill="#131313"/>
<path d="M17.2979 22.3667H16.0312V23.6334H17.2979V22.3667Z" fill="#131313"/>
<path d="M17.2979 26.1667H16.0312V27.4334H17.2979V26.1667Z" fill="#131313"/>
<path d="M17.2979 28.7H16.0312V29.9667H17.2979V28.7Z" fill="#131313"/>
<path d="M17.2979 29.9667H16.0312V31.2334H17.2979V29.9667Z" fill="#131313"/>
<path d="M17.2979 32.5001H16.0312V33.7667H17.2979V32.5001Z" fill="#131313"/>
<path d="M17.2979 33.7667H16.0312V35.0334H17.2979V33.7667Z" fill="#131313"/>
<path d="M18.5655 0.833374H17.2988V2.10004H18.5655V0.833374Z" fill="#131313"/>
<path d="M18.5655 3.3667H17.2988V4.63337H18.5655V3.3667Z" fill="#131313"/>
<path d="M18.5655 4.63336H17.2988V5.90003H18.5655V4.63336Z" fill="#131313"/>
<path d="M18.5655 13.5001H17.2988V14.7667H18.5655V13.5001Z" fill="#131313"/>
<path d="M18.5655 14.7667H17.2988V16.0334H18.5655V14.7667Z" fill="#131313"/>
<path d="M18.5655 16.0334H17.2988V17.3001H18.5655V16.0334Z" fill="#131313"/>
<path d="M18.5655 17.3H17.2988V18.5667H18.5655V17.3Z" fill="#131313"/>
<path d="M18.5655 18.5667H17.2988V19.8334H18.5655V18.5667Z" fill="#131313"/>
<path d="M18.5655 19.8334H17.2988V21.1H18.5655V19.8334Z" fill="#131313"/>
<path d="M18.5655 23.6334H17.2988V24.9H18.5655V23.6334Z" fill="#131313"/>
<path d="M18.5655 24.9H17.2988V26.1667H18.5655V24.9Z" fill="#131313"/>
<path d="M18.5655 26.1667H17.2988V27.4334H18.5655V26.1667Z" fill="#131313"/>
<path d="M18.5655 27.4333H17.2988V28.7H18.5655V27.4333Z" fill="#131313"/>
<path d="M18.5655 29.9667H17.2988V31.2334H18.5655V29.9667Z" fill="#131313"/>
<path d="M18.5655 32.5001H17.2988V33.7667H18.5655V32.5001Z" fill="#131313"/>
<path d="M18.5655 35.0334H17.2988V36.3001H18.5655V35.0334Z" fill="#131313"/>
<path d="M19.8311 0.833374H18.5645V2.10004H19.8311V0.833374Z" fill="#131313"/>
<path d="M19.8311 2.10004H18.5645V3.3667H19.8311V2.10004Z" fill="#131313"/>
<path d="M19.8311 3.3667H18.5645V4.63337H19.8311V3.3667Z" fill="#131313"/>
<path d="M19.8311 4.63336H18.5645V5.90003H19.8311V4.63336Z" fill="#131313"/>
<path d="M19.8311 5.90002H18.5645V7.16669H19.8311V5.90002Z" fill="#131313"/>
<path d="M19.8311 8.43335H18.5645V9.70002H19.8311V8.43335Z" fill="#131313"/>
<path d="M19.8311 9.70001H18.5645V10.9667H19.8311V9.70001Z" fill="#131313"/>
<path d="M19.8311 10.9667H18.5645V12.2334H19.8311V10.9667Z" fill="#131313"/>
<path d="M19.8311 12.2334H18.5645V13.5001H19.8311V12.2334Z" fill="#131313"/>
<path d="M19.8311 16.0334H18.5645V17.3001H19.8311V16.0334Z" fill="#131313"/>
<path d="M19.8311 17.3H18.5645V18.5667H19.8311V17.3Z" fill="#131313"/>
<path d="M19.8311 21.1H18.5645V22.3667H19.8311V21.1Z" fill="#131313"/>
<path d="M19.8311 26.1667H18.5645V27.4334H19.8311V26.1667Z" fill="#131313"/>
<path d="M19.8311 27.4333H18.5645V28.7H19.8311V27.4333Z" fill="#131313"/>
<path d="M19.8311 36.3H18.5645V37.5667H19.8311V36.3Z" fill="#131313"/>
<path d="M21.0987 10.9667H19.832V12.2334H21.0987V10.9667Z" fill="#131313"/>
<path d="M21.0987 14.7667H19.832V16.0334H21.0987V14.7667Z" fill="#131313"/>
<path d="M21.0987 18.5667H19.832V19.8334H21.0987V18.5667Z" fill="#131313"/>
<path d="M21.0987 24.9H19.832V26.1667H21.0987V24.9Z" fill="#131313"/>
<path d="M21.0987 26.1667H19.832V27.4334H21.0987V26.1667Z" fill="#131313"/>
<path d="M21.0987 28.7H19.832V29.9667H21.0987V28.7Z" fill="#131313"/>
<path d="M21.0987 29.9667H19.832V31.2334H21.0987V29.9667Z" fill="#131313"/>
<path d="M22.3663 3.3667H21.0996V4.63337H22.3663V3.3667Z" fill="#131313"/>
<path d="M22.3663 4.63336H21.0996V5.90003H22.3663V4.63336Z" fill="#131313"/>
<path d="M22.3663 8.43335H21.0996V9.70002H22.3663V8.43335Z" fill="#131313"/>
<path d="M22.3663 14.7667H21.0996V16.0334H22.3663V14.7667Z" fill="#131313"/>
<path d="M22.3663 17.3H21.0996V18.5667H22.3663V17.3Z" fill="#131313"/>
<path d="M22.3663 19.8334H21.0996V21.1H22.3663V19.8334Z" fill="#131313"/>
<path d="M22.3663 21.1H21.0996V22.3667H22.3663V21.1Z" fill="#131313"/>
<path d="M22.3663 27.4333H21.0996V28.7H22.3663V27.4333Z" fill="#131313"/>
<path d="M22.3663 31.2334H21.0996V32.5001H22.3663V31.2334Z" fill="#131313"/>
<path d="M22.3663 35.0334H21.0996V36.3001H22.3663V35.0334Z" fill="#131313"/>
<path d="M22.3663 36.3H21.0996V37.5667H22.3663V36.3Z" fill="#131313"/>
<path d="M23.6319 2.10004H22.3652V3.3667H23.6319V2.10004Z" fill="#131313"/>
<path d="M23.6319 5.90002H22.3652V7.16669H23.6319V5.90002Z" fill="#131313"/>
<path d="M23.6319 9.70001H22.3652V10.9667H23.6319V9.70001Z" fill="#131313"/>
<path d="M23.6319 10.9667H22.3652V12.2334H23.6319V10.9667Z" fill="#131313"/>
<path d="M23.6319 12.2334H22.3652V13.5001H23.6319V12.2334Z" fill="#131313"/>
<path d="M23.6319 13.5001H22.3652V14.7667H23.6319V13.5001Z" fill="#131313"/>
<path d="M23.6319 14.7667H22.3652V16.0334H23.6319V14.7667Z" fill="#131313"/>
<path d="M23.6319 16.0334H22.3652V17.3001H23.6319V16.0334Z" fill="#131313"/>
<path d="M23.6319 17.3H22.3652V18.5667H23.6319V17.3Z" fill="#131313"/>
<path d="M23.6319 19.8334H22.3652V21.1H23.6319V19.8334Z" fill="#131313"/>
<path d="M23.6319 24.9H22.3652V26.1667H23.6319V24.9Z" fill="#131313"/>
<path d="M23.6319 27.4333H22.3652V28.7H23.6319V27.4333Z" fill="#131313"/>
<path d="M23.6319 29.9667H22.3652V31.2334H23.6319V29.9667Z" fill="#131313"/>
<path d="M23.6319 32.5001H22.3652V33.7667H23.6319V32.5001Z" fill="#131313"/>
<path d="M23.6319 33.7667H22.3652V35.0334H23.6319V33.7667Z" fill="#131313"/>
<path d="M23.6319 35.0334H22.3652V36.3001H23.6319V35.0334Z" fill="#131313"/>
<path d="M23.6319 36.3H22.3652V37.5667H23.6319V36.3Z" fill="#131313"/>
<path d="M24.8995 0.833374H23.6328V2.10004H24.8995V0.833374Z" fill="#131313"/>
<path d="M24.8995 4.63336H23.6328V5.90003H24.8995V4.63336Z" fill="#131313"/>
<path d="M24.8995 5.90002H23.6328V7.16669H24.8995V5.90002Z" fill="#131313"/>
<path d="M24.8995 8.43335H23.6328V9.70002H24.8995V8.43335Z" fill="#131313"/>
<path d="M24.8995 12.2334H23.6328V13.5001H24.8995V12.2334Z" fill="#131313"/>
<path d="M24.8995 14.7667H23.6328V16.0334H24.8995V14.7667Z" fill="#131313"/>
<path d="M24.8995 16.0334H23.6328V17.3001H24.8995V16.0334Z" fill="#131313"/>
<path d="M24.8995 17.3H23.6328V18.5667H24.8995V17.3Z" fill="#131313"/>
<path d="M24.8995 18.5667H23.6328V19.8334H24.8995V18.5667Z" fill="#131313"/>
<path d="M24.8995 22.3667H23.6328V23.6334H24.8995V22.3667Z" fill="#131313"/>
<path d="M24.8995 23.6334H23.6328V24.9H24.8995V23.6334Z" fill="#131313"/>
<path d="M24.8995 26.1667H23.6328V27.4334H24.8995V26.1667Z" fill="#131313"/>
<path d="M24.8995 27.4333H23.6328V28.7H24.8995V27.4333Z" fill="#131313"/>
<path d="M24.8995 29.9667H23.6328V31.2334H24.8995V29.9667Z" fill="#131313"/>
<path d="M24.8995 32.5001H23.6328V33.7667H24.8995V32.5001Z" fill="#131313"/>
<path d="M24.8995 33.7667H23.6328V35.0334H24.8995V33.7667Z" fill="#131313"/>
<path d="M24.8995 35.0334H23.6328V36.3001H24.8995V35.0334Z" fill="#131313"/>
<path d="M24.8995 36.3H23.6328V37.5667H24.8995V36.3Z" fill="#131313"/>
<path d="M26.1651 5.90002H24.8984V7.16669H26.1651V5.90002Z" fill="#131313"/>
<path d="M26.1651 9.70001H24.8984V10.9667H26.1651V9.70001Z" fill="#131313"/>
<path d="M26.1651 17.3H24.8984V18.5667H26.1651V17.3Z" fill="#131313"/>
<path d="M26.1651 19.8334H24.8984V21.1H26.1651V19.8334Z" fill="#131313"/>
<path d="M26.1651 21.1H24.8984V22.3667H26.1651V21.1Z" fill="#131313"/>
<path d="M26.1651 22.3667H24.8984V23.6334H26.1651V22.3667Z" fill="#131313"/>
<path d="M26.1651 26.1667H24.8984V27.4334H26.1651V26.1667Z" fill="#131313"/>
<path d="M26.1651 29.9667H24.8984V31.2334H26.1651V29.9667Z" fill="#131313"/>
<path d="M26.1651 32.5001H24.8984V33.7667H26.1651V32.5001Z" fill="#131313"/>
<path d="M26.1651 35.0334H24.8984V36.3001H26.1651V35.0334Z" fill="#131313"/>
<path d="M27.4327 0.833374H26.166V2.10004H27.4327V0.833374Z" fill="#131313"/>
<path d="M27.4327 8.43335H26.166V9.70002H27.4327V8.43335Z" fill="#131313"/>
<path d="M27.4327 10.9667H26.166V12.2334H27.4327V10.9667Z" fill="#131313"/>
<path d="M27.4327 14.7667H26.166V16.0334H27.4327V14.7667Z" fill="#131313"/>
<path d="M27.4327 16.0334H26.166V17.3001H27.4327V16.0334Z" fill="#131313"/>
<path d="M27.4327 18.5667H26.166V19.8334H27.4327V18.5667Z" fill="#131313"/>
<path d="M27.4327 21.1H26.166V22.3667H27.4327V21.1Z" fill="#131313"/>
<path d="M27.4327 23.6334H26.166V24.9H27.4327V23.6334Z" fill="#131313"/>
<path d="M27.4327 26.1667H26.166V27.4334H27.4327V26.1667Z" fill="#131313"/>
<path d="M27.4327 27.4333H26.166V28.7H27.4327V27.4333Z" fill="#131313"/>
<path d="M27.4327 28.7H26.166V29.9667H27.4327V28.7Z" fill="#131313"/>
<path d="M27.4327 29.9667H26.166V31.2334H27.4327V29.9667Z" fill="#131313"/>
<path d="M27.4327 31.2334H26.166V32.5001H27.4327V31.2334Z" fill="#131313"/>
<path d="M28.6983 10.9667H27.4316V12.2334H28.6983V10.9667Z" fill="#131313"/>
<path d="M28.6983 13.5001H27.4316V14.7667H28.6983V13.5001Z" fill="#131313"/>
<path d="M28.6983 14.7667H27.4316V16.0334H28.6983V14.7667Z" fill="#131313"/>
<path d="M28.6983 17.3H27.4316V18.5667H28.6983V17.3Z" fill="#131313"/>
<path d="M28.6983 21.1H27.4316V22.3667H28.6983V21.1Z" fill="#131313"/>
<path d="M28.6983 22.3667H27.4316V23.6334H28.6983V22.3667Z" fill="#131313"/>
<path d="M28.6983 24.9H27.4316V26.1667H28.6983V24.9Z" fill="#131313"/>
<path d="M28.6983 26.1667H27.4316V27.4334H28.6983V26.1667Z" fill="#131313"/>
<path d="M28.6983 31.2334H27.4316V32.5001H28.6983V31.2334Z" fill="#131313"/>
<path d="M28.6983 35.0334H27.4316V36.3001H28.6983V35.0334Z" fill="#131313"/>
<path d="M28.6983 36.3H27.4316V37.5667H28.6983V36.3Z" fill="#131313"/>
<path d="M29.9659 10.9667H28.6992V12.2334H29.9659V10.9667Z" fill="#131313"/>
<path d="M29.9659 13.5001H28.6992V14.7667H29.9659V13.5001Z" fill="#131313"/>
<path d="M29.9659 21.1H28.6992V22.3667H29.9659V21.1Z" fill="#131313"/>
<path d="M29.9659 23.6334H28.6992V24.9H29.9659V23.6334Z" fill="#131313"/>
<path d="M29.9659 26.1667H28.6992V27.4334H29.9659V26.1667Z" fill="#131313"/>
<path d="M29.9659 28.7H28.6992V29.9667H29.9659V28.7Z" fill="#131313"/>
<path d="M29.9659 31.2334H28.6992V32.5001H29.9659V31.2334Z" fill="#131313"/>
<path d="M29.9659 32.5001H28.6992V33.7667H29.9659V32.5001Z" fill="#131313"/>
<path d="M29.9659 33.7667H28.6992V35.0334H29.9659V33.7667Z" fill="#131313"/>
<path d="M29.9659 35.0334H28.6992V36.3001H29.9659V35.0334Z" fill="#131313"/>
<path d="M31.2315 10.9667H29.9648V12.2334H31.2315V10.9667Z" fill="#131313"/>
<path d="M31.2315 12.2334H29.9648V13.5001H31.2315V12.2334Z" fill="#131313"/>
<path d="M31.2315 13.5001H29.9648V14.7667H31.2315V13.5001Z" fill="#131313"/>
<path d="M31.2315 16.0334H29.9648V17.3001H31.2315V16.0334Z" fill="#131313"/>
<path d="M31.2315 18.5667H29.9648V19.8334H31.2315V18.5667Z" fill="#131313"/>
<path d="M31.2315 23.6334H29.9648V24.9H31.2315V23.6334Z" fill="#131313"/>
<path d="M31.2315 26.1667H29.9648V27.4334H31.2315V26.1667Z" fill="#131313"/>
<path d="M31.2315 31.2334H29.9648V32.5001H31.2315V31.2334Z" fill="#131313"/>
<path d="M31.2315 33.7667H29.9648V35.0334H31.2315V33.7667Z" fill="#131313"/>
<path d="M31.2315 36.3H29.9648V37.5667H31.2315V36.3Z" fill="#131313"/>
<path d="M32.4991 12.2334H31.2324V13.5001H32.4991V12.2334Z" fill="#131313"/>
<path d="M32.4991 14.7667H31.2324V16.0334H32.4991V14.7667Z" fill="#131313"/>
<path d="M32.4991 16.0334H31.2324V17.3001H32.4991V16.0334Z" fill="#131313"/>
<path d="M32.4991 21.1H31.2324V22.3667H32.4991V21.1Z" fill="#131313"/>
<path d="M32.4991 23.6334H31.2324V24.9H32.4991V23.6334Z" fill="#131313"/>
<path d="M32.4991 26.1667H31.2324V27.4334H32.4991V26.1667Z" fill="#131313"/>
<path d="M32.4991 27.4333H31.2324V28.7H32.4991V27.4333Z" fill="#131313"/>
<path d="M32.4991 28.7H31.2324V29.9667H32.4991V28.7Z" fill="#131313"/>
<path d="M32.4991 29.9667H31.2324V31.2334H32.4991V29.9667Z" fill="#131313"/>
<path d="M32.4991 31.2334H31.2324V32.5001H32.4991V31.2334Z" fill="#131313"/>
<path d="M32.4991 32.5001H31.2324V33.7667H32.4991V32.5001Z" fill="#131313"/>
<path d="M32.4991 35.0334H31.2324V36.3001H32.4991V35.0334Z" fill="#131313"/>
<path d="M33.7647 10.9667H32.498V12.2334H33.7647V10.9667Z" fill="#131313"/>
<path d="M33.7647 12.2334H32.498V13.5001H33.7647V12.2334Z" fill="#131313"/>
<path d="M33.7647 13.5001H32.498V14.7667H33.7647V13.5001Z" fill="#131313"/>
<path d="M33.7647 14.7667H32.498V16.0334H33.7647V14.7667Z" fill="#131313"/>
<path d="M33.7647 16.0334H32.498V17.3001H33.7647V16.0334Z" fill="#131313"/>
<path d="M33.7647 19.8334H32.498V21.1H33.7647V19.8334Z" fill="#131313"/>
<path d="M33.7647 23.6334H32.498V24.9H33.7647V23.6334Z" fill="#131313"/>
<path d="M33.7647 24.9H32.498V26.1667H33.7647V24.9Z" fill="#131313"/>
<path d="M33.7647 26.1667H32.498V27.4334H33.7647V26.1667Z" fill="#131313"/>
<path d="M33.7647 27.4333H32.498V28.7H33.7647V27.4333Z" fill="#131313"/>
<path d="M33.7647 28.7H32.498V29.9667H33.7647V28.7Z" fill="#131313"/>
<path d="M33.7647 31.2334H32.498V32.5001H33.7647V31.2334Z" fill="#131313"/>
<path d="M33.7647 32.5001H32.498V33.7667H33.7647V32.5001Z" fill="#131313"/>
<path d="M33.7647 36.3H32.498V37.5667H33.7647V36.3Z" fill="#131313"/>
<path d="M35.0323 12.2334H33.7656V13.5001H35.0323V12.2334Z" fill="#131313"/>
<path d="M35.0323 13.5001H33.7656V14.7667H35.0323V13.5001Z" fill="#131313"/>
<path d="M35.0323 16.0334H33.7656V17.3001H35.0323V16.0334Z" fill="#131313"/>
<path d="M35.0323 17.3H33.7656V18.5667H35.0323V17.3Z" fill="#131313"/>
<path d="M35.0323 18.5667H33.7656V19.8334H35.0323V18.5667Z" fill="#131313"/>
<path d="M35.0323 19.8334H33.7656V21.1H35.0323V19.8334Z" fill="#131313"/>
<path d="M35.0323 21.1H33.7656V22.3667H35.0323V21.1Z" fill="#131313"/>
<path d="M35.0323 24.9H33.7656V26.1667H35.0323V24.9Z" fill="#131313"/>
<path d="M35.0323 26.1667H33.7656V27.4334H35.0323V26.1667Z" fill="#131313"/>
<path d="M35.0323 31.2334H33.7656V32.5001H35.0323V31.2334Z" fill="#131313"/>
<path d="M35.0323 32.5001H33.7656V33.7667H35.0323V32.5001Z" fill="#131313"/>
<path d="M35.0323 36.3H33.7656V37.5667H35.0323V36.3Z" fill="#131313"/>
<path d="M36.2979 10.9667H35.0312V12.2334H36.2979V10.9667Z" fill="#131313"/>
<path d="M36.2979 12.2334H35.0312V13.5001H36.2979V12.2334Z" fill="#131313"/>
<path d="M36.2979 13.5001H35.0312V14.7667H36.2979V13.5001Z" fill="#131313"/>
<path d="M36.2979 14.7667H35.0312V16.0334H36.2979V14.7667Z" fill="#131313"/>
<path d="M36.2979 16.0334H35.0312V17.3001H36.2979V16.0334Z" fill="#131313"/>
<path d="M36.2979 17.3H35.0312V18.5667H36.2979V17.3Z" fill="#131313"/>
<path d="M36.2979 18.5667H35.0312V19.8334H36.2979V18.5667Z" fill="#131313"/>
<path d="M36.2979 21.1H35.0312V22.3667H36.2979V21.1Z" fill="#131313"/>
<path d="M36.2979 22.3667H35.0312V23.6334H36.2979V22.3667Z" fill="#131313"/>
<path d="M36.2979 27.4333H35.0312V28.7H36.2979V27.4333Z" fill="#131313"/>
<path d="M36.2979 29.9667H35.0312V31.2334H36.2979V29.9667Z" fill="#131313"/>
<path d="M36.2979 35.0334H35.0312V36.3001H36.2979V35.0334Z" fill="#131313"/>
<path d="M37.5655 12.2334H36.2988V13.5001H37.5655V12.2334Z" fill="#131313"/>
<path d="M37.5655 13.5001H36.2988V14.7667H37.5655V13.5001Z" fill="#131313"/>
<path d="M37.5655 14.7667H36.2988V16.0334H37.5655V14.7667Z" fill="#131313"/>
<path d="M37.5655 17.3H36.2988V18.5667H37.5655V17.3Z" fill="#131313"/>
<path d="M37.5655 19.8334H36.2988V21.1H37.5655V19.8334Z" fill="#131313"/>
<path d="M37.5655 22.3667H36.2988V23.6334H37.5655V22.3667Z" fill="#131313"/>
<path d="M37.5655 26.1667H36.2988V27.4334H37.5655V26.1667Z" fill="#131313"/>
<path d="M37.5655 27.4333H36.2988V28.7H37.5655V27.4333Z" fill="#131313"/>
<path d="M37.5655 31.2334H36.2988V32.5001H37.5655V31.2334Z" fill="#131313"/>
<path d="M37.5655 33.7667H36.2988V35.0334H37.5655V33.7667Z" fill="#131313"/>
<path d="M37.5655 35.0334H36.2988V36.3001H37.5655V35.0334Z" fill="#131313"/>
<path d="M2.0987 0.833374H0.832031V2.10004H2.0987V0.833374Z" fill="#131313"/>
<path d="M2.0987 2.10004H0.832031V3.3667H2.0987V2.10004Z" fill="#131313"/>
<path d="M2.0987 3.3667H0.832031V4.63337H2.0987V3.3667Z" fill="#131313"/>
<path d="M2.0987 4.63336H0.832031V5.90003H2.0987V4.63336Z" fill="#131313"/>
<path d="M2.0987 5.90002H0.832031V7.16669H2.0987V5.90002Z" fill="#131313"/>
<path d="M2.0987 7.16669H0.832031V8.43335H2.0987V7.16669Z" fill="#131313"/>
<path d="M2.0987 8.43335H0.832031V9.70002H2.0987V8.43335Z" fill="#131313"/>
<path d="M3.36628 0.833374H2.09961V2.10004H3.36628V0.833374Z" fill="#131313"/>
<path d="M3.36628 8.43335H2.09961V9.70002H3.36628V8.43335Z" fill="#131313"/>
<path d="M4.6319 0.833374H3.36523V2.10004H4.6319V0.833374Z" fill="#131313"/>
<path d="M4.6319 8.43335H3.36523V9.70002H4.6319V8.43335Z" fill="#131313"/>
<path d="M5.89948 0.833374H4.63281V2.10004H5.89948V0.833374Z" fill="#131313"/>
<path d="M5.89948 8.43335H4.63281V9.70002H5.89948V8.43335Z" fill="#131313"/>
<path d="M7.1651 0.833374H5.89844V2.10004H7.1651V0.833374Z" fill="#131313"/>
<path d="M7.1651 8.43335H5.89844V9.70002H7.1651V8.43335Z" fill="#131313"/>
<path d="M8.43268 0.833374H7.16602V2.10004H8.43268V0.833374Z" fill="#131313"/>
<path d="M8.43268 8.43335H7.16602V9.70002H8.43268V8.43335Z" fill="#131313"/>
<path d="M9.69831 0.833374H8.43164V2.10004H9.69831V0.833374Z" fill="#131313"/>
<path d="M9.69831 2.10004H8.43164V3.3667H9.69831V2.10004Z" fill="#131313"/>
<path d="M9.69831 3.3667H8.43164V4.63337H9.69831V3.3667Z" fill="#131313"/>
<path d="M9.69831 4.63336H8.43164V5.90003H9.69831V4.63336Z" fill="#131313"/>
<path d="M9.69831 5.90002H8.43164V7.16669H9.69831V5.90002Z" fill="#131313"/>
<path d="M9.69831 7.16669H8.43164V8.43335H9.69831V7.16669Z" fill="#131313"/>
<path d="M9.69831 8.43335H8.43164V9.70002H9.69831V8.43335Z" fill="#131313"/>
<path d="M4.6319 3.3667H3.36523V4.63337H4.6319V3.3667Z" fill="#131313"/>
<path d="M4.6319 4.63336H3.36523V5.90003H4.6319V4.63336Z" fill="#131313"/>
<path d="M4.6319 5.90002H3.36523V7.16669H4.6319V5.90002Z" fill="#131313"/>
<path d="M5.89948 3.3667H4.63281V4.63337H5.89948V3.3667Z" fill="#131313"/>
<path d="M5.89948 4.63336H4.63281V5.90003H5.89948V4.63336Z" fill="#131313"/>
<path d="M5.89948 5.90002H4.63281V7.16669H5.89948V5.90002Z" fill="#131313"/>
<path d="M7.1651 3.3667H5.89844V4.63337H7.1651V3.3667Z" fill="#131313"/>
<path d="M7.1651 4.63336H5.89844V5.90003H7.1651V4.63336Z" fill="#131313"/>
<path d="M7.1651 5.90002H5.89844V7.16669H7.1651V5.90002Z" fill="#131313"/>
<path d="M29.9659 0.833374H28.6992V2.10004H29.9659V0.833374Z" fill="#131313"/>
<path d="M29.9659 2.10004H28.6992V3.3667H29.9659V2.10004Z" fill="#131313"/>
<path d="M29.9659 3.3667H28.6992V4.63337H29.9659V3.3667Z" fill="#131313"/>
<path d="M29.9659 4.63336H28.6992V5.90003H29.9659V4.63336Z" fill="#131313"/>
<path d="M29.9659 5.90002H28.6992V7.16669H29.9659V5.90002Z" fill="#131313"/>
<path d="M29.9659 7.16669H28.6992V8.43335H29.9659V7.16669Z" fill="#131313"/>
<path d="M29.9659 8.43335H28.6992V9.70002H29.9659V8.43335Z" fill="#131313"/>
<path d="M31.2335 0.833374H29.9668V2.10004H31.2335V0.833374Z" fill="#131313"/>
<path d="M31.2335 8.43335H29.9668V9.70002H31.2335V8.43335Z" fill="#131313"/>
<path d="M32.4991 0.833374H31.2324V2.10004H32.4991V0.833374Z" fill="#131313"/>
<path d="M32.4991 8.43335H31.2324V9.70002H32.4991V8.43335Z" fill="#131313"/>
<path d="M33.7667 0.833374H32.5V2.10004H33.7667V0.833374Z" fill="#131313"/>
<path d="M33.7667 8.43335H32.5V9.70002H33.7667V8.43335Z" fill="#131313"/>
<path d="M35.0323 0.833374H33.7656V2.10004H35.0323V0.833374Z" fill="#131313"/>
<path d="M35.0323 8.43335H33.7656V9.70002H35.0323V8.43335Z" fill="#131313"/>
<path d="M36.2999 0.833374H35.0332V2.10004H36.2999V0.833374Z" fill="#131313"/>
<path d="M36.2999 8.43335H35.0332V9.70002H36.2999V8.43335Z" fill="#131313"/>
<path d="M37.5655 0.833374H36.2988V2.10004H37.5655V0.833374Z" fill="#131313"/>
<path d="M37.5655 2.10004H36.2988V3.3667H37.5655V2.10004Z" fill="#131313"/>
<path d="M37.5655 3.3667H36.2988V4.63337H37.5655V3.3667Z" fill="#131313"/>
<path d="M37.5655 4.63336H36.2988V5.90003H37.5655V4.63336Z" fill="#131313"/>
<path d="M37.5655 5.90002H36.2988V7.16669H37.5655V5.90002Z" fill="#131313"/>
<path d="M37.5655 7.16669H36.2988V8.43335H37.5655V7.16669Z" fill="#131313"/>
<path d="M37.5655 8.43335H36.2988V9.70002H37.5655V8.43335Z" fill="#131313"/>
<path d="M32.4991 3.3667H31.2324V4.63337H32.4991V3.3667Z" fill="#131313"/>
<path d="M32.4991 4.63336H31.2324V5.90003H32.4991V4.63336Z" fill="#131313"/>
<path d="M32.4991 5.90002H31.2324V7.16669H32.4991V5.90002Z" fill="#131313"/>
<path d="M33.7667 3.3667H32.5V4.63337H33.7667V3.3667Z" fill="#131313"/>
<path d="M33.7667 4.63336H32.5V5.90003H33.7667V4.63336Z" fill="#131313"/>
<path d="M33.7667 5.90002H32.5V7.16669H33.7667V5.90002Z" fill="#131313"/>
<path d="M35.0323 3.3667H33.7656V4.63337H35.0323V3.3667Z" fill="#131313"/>
<path d="M35.0323 4.63336H33.7656V5.90003H35.0323V4.63336Z" fill="#131313"/>
<path d="M35.0323 5.90002H33.7656V7.16669H35.0323V5.90002Z" fill="#131313"/>
<path d="M2.0987 28.7H0.832031V29.9667H2.0987V28.7Z" fill="#131313"/>
<path d="M2.0987 29.9667H0.832031V31.2333H2.0987V29.9667Z" fill="#131313"/>
<path d="M2.0987 31.2333H0.832031V32.5H2.0987V31.2333Z" fill="#131313"/>
<path d="M2.0987 32.5H0.832031V33.7667H2.0987V32.5Z" fill="#131313"/>
<path d="M2.0987 33.7667H0.832031V35.0333H2.0987V33.7667Z" fill="#131313"/>
<path d="M2.0987 35.0333H0.832031V36.3H2.0987V35.0333Z" fill="#131313"/>
<path d="M2.0987 36.3H0.832031V37.5667H2.0987V36.3Z" fill="#131313"/>
<path d="M3.36628 28.7H2.09961V29.9667H3.36628V28.7Z" fill="#131313"/>
<path d="M3.36628 36.3H2.09961V37.5667H3.36628V36.3Z" fill="#131313"/>
<path d="M4.6319 28.7H3.36523V29.9667H4.6319V28.7Z" fill="#131313"/>
<path d="M4.6319 36.3H3.36523V37.5667H4.6319V36.3Z" fill="#131313"/>
<path d="M5.89948 28.7H4.63281V29.9667H5.89948V28.7Z" fill="#131313"/>
<path d="M5.89948 36.3H4.63281V37.5667H5.89948V36.3Z" fill="#131313"/>
<path d="M7.1651 28.7H5.89844V29.9667H7.1651V28.7Z" fill="#131313"/>
<path d="M7.1651 36.3H5.89844V37.5667H7.1651V36.3Z" fill="#131313"/>
<path d="M8.43268 28.7H7.16602V29.9667H8.43268V28.7Z" fill="#131313"/>
<path d="M8.43268 36.3H7.16602V37.5667H8.43268V36.3Z" fill="#131313"/>
<path d="M9.69831 28.7H8.43164V29.9667H9.69831V28.7Z" fill="#131313"/>
<path d="M9.69831 29.9667H8.43164V31.2333H9.69831V29.9667Z" fill="#131313"/>
<path d="M9.69831 31.2333H8.43164V32.5H9.69831V31.2333Z" fill="#131313"/>
<path d="M9.69831 32.5H8.43164V33.7667H9.69831V32.5Z" fill="#131313"/>
<path d="M9.69831 33.7667H8.43164V35.0333H9.69831V33.7667Z" fill="#131313"/>
<path d="M9.69831 35.0333H8.43164V36.3H9.69831V35.0333Z" fill="#131313"/>
<path d="M9.69831 36.3H8.43164V37.5667H9.69831V36.3Z" fill="#131313"/>
<path d="M4.6319 31.2333H3.36523V32.5H4.6319V31.2333Z" fill="#131313"/>
<path d="M4.6319 32.5H3.36523V33.7667H4.6319V32.5Z" fill="#131313"/>
<path d="M4.6319 33.7667H3.36523V35.0333H4.6319V33.7667Z" fill="#131313"/>
<path d="M5.89948 31.2333H4.63281V32.5H5.89948V31.2333Z" fill="#131313"/>
<path d="M5.89948 32.5H4.63281V33.7667H5.89948V32.5Z" fill="#131313"/>
<path d="M5.89948 33.7667H4.63281V35.0333H5.89948V33.7667Z" fill="#131313"/>
<path d="M7.1651 31.2333H5.89844V32.5H7.1651V31.2333Z" fill="#131313"/>
<path d="M7.1651 32.5H5.89844V33.7667H7.1651V32.5Z" fill="#131313"/>
<path d="M7.1651 33.7667H5.89844V35.0333H7.1651V33.7667Z" fill="#131313"/>
</g>
<defs>
<clipPath id="clip0_580_184">
<rect width="38" height="38" fill="white" transform="translate(0.199219 0.200012)"/>
</clipPath>
</defs>
</svg>
