<svg width="71" height="90" viewBox="0 0 71 90" fill="none" xmlns="http://www.w3.org/2000/svg">
<path d="M14.9085 8.1832C13.1016 6.33046 10.1219 5.97506 9.00668 7.90359C7.89142 9.83212 8.52803 11.8704 6.24006 14.008C4.68444 15.4687 5.83799 19.9451 14.7122 19.5349C18.9124 19.3415 17.4908 14.5698 17.3783 12.3146C17.2658 10.0595 17.2587 7.29995 14.9085 8.1832Z" fill="#263238"/>
<path d="M11.4115 86.8503L9.26236 86.9418L9.22168 84.4018L11.3708 84.3103L11.4115 86.8503Z" fill="#B55B52"/>
<path d="M9.12849 86.4558H11.5576C11.6004 86.4552 11.6421 86.4708 11.6757 86.4998C11.7092 86.5288 11.7326 86.5695 11.7419 86.6152L12.1631 88.7188C12.1728 88.7701 12.1718 88.8231 12.1602 88.8739C12.1487 88.9247 12.1268 88.972 12.0963 89.0124C12.0657 89.0527 12.0273 89.0851 11.9838 89.1071C11.9403 89.1291 11.8928 89.1402 11.8448 89.1395C10.9952 89.1238 10.5836 89.0689 9.5138 89.0689C8.85566 89.0689 7.14926 89.1447 6.23982 89.1447C5.33038 89.1447 5.2155 88.1622 5.58646 88.0733C7.26174 87.6735 8.2358 87.1247 8.77189 86.5995C8.87022 86.5048 8.99738 86.4535 9.12849 86.4558Z" fill="#263238"/>
<path opacity="0.2" d="M9.22168 84.4044L9.24083 85.5855L11.39 85.4836L11.3708 84.3129L9.22168 84.4044Z" fill="black"/>
<path d="M6.0536 35.6921C5.57495 38.5091 6.1254 52.2779 6.85535 58.3588C7.82701 66.4335 8.83218 85.1831 8.83218 85.1831L11.7041 84.9949C11.7041 84.9949 12.4221 65.2498 11.8357 58.7665C12.1684 50.4226 12.9917 35.8489 12.9917 35.8489L6.0536 35.6921Z" fill="#89B1E8"/>
<path opacity="0.2" d="M12.5147 44.9297C12.6152 42.8156 11.2439 40.9368 10.691 44.9297C10.3416 47.4671 11.0644 51.9147 12.0121 55.0558C12.1581 51.7867 12.3448 48.1465 12.5147 44.9297Z" fill="black"/>
<path d="M27.2028 78.9508L25.8052 80.4089L23.9121 78.193L25.3074 76.7374L27.2028 78.9508Z" fill="#B55B52"/>
<path d="M25.4383 80.448L26.8742 78.3C26.8976 78.2627 26.9332 78.2364 26.9736 78.2267C27.0141 78.217 27.0564 78.2245 27.092 78.2477L28.7673 79.3244C28.8085 79.3543 28.8438 79.3929 28.8711 79.4381C28.8984 79.4832 28.917 79.5338 28.9259 79.587C28.9349 79.6402 28.9339 79.6948 28.9231 79.7475C28.9123 79.8003 28.8919 79.8501 28.863 79.894C28.3533 80.6336 28.0732 80.9602 27.4438 81.9062C27.0561 82.4863 26.6086 83.2859 26.0749 84.0908C25.5412 84.8957 24.8112 84.3182 24.9692 83.9288C25.6872 82.1806 25.3832 81.6945 25.3449 80.8609C25.3326 80.7157 25.3655 80.5703 25.4383 80.448Z" fill="#263238"/>
<path opacity="0.2" d="M23.9121 78.1956L24.8886 79.3349L26.2743 77.8663L25.3098 76.7374L23.9121 78.1956Z" fill="black"/>
<path d="M9.38477 35.7679C9.38477 35.7679 12.4769 53.5376 13.281 60.4364C13.7597 64.5574 24.3139 79.3845 24.3139 79.3845L26.1161 77.3123C26.1161 77.3123 22.2533 66.4571 17.6008 60.0183C17.4166 52.4714 18.2016 40.0483 15.5307 35.9064L9.38477 35.7679Z" fill="#89B1E8"/>
<path d="M6.67126 22.1428C6.67126 23.6689 6.60664 25.1662 6.50373 26.6792C6.40082 28.1923 6.2644 29.6975 6.04183 31.2131L6.00114 31.4979L5.9461 31.8194C5.90461 32.0302 5.85914 32.2366 5.80968 32.4387C5.70438 32.8385 5.57036 33.2226 5.45069 33.5937C5.18885 34.3213 4.89166 35.0331 4.5604 35.7261C3.90811 37.0811 3.16497 38.3817 2.33706 39.6171C2.24966 39.7452 2.12203 39.8335 1.97866 39.8651C1.83528 39.8968 1.68626 39.8695 1.56018 39.7885C1.4341 39.7075 1.33985 39.5786 1.29551 39.4264C1.25116 39.2742 1.25986 39.1094 1.31992 38.9638V38.9481C1.88233 37.6206 2.428 36.2592 2.90426 34.9108C3.14358 34.2366 3.35658 33.5545 3.53847 32.8855C3.62463 32.5511 3.70121 32.2192 3.76105 31.8951C3.79216 31.7331 3.8137 31.5737 3.83524 31.4169L3.85917 31.1844L3.8831 30.923C4.00516 29.4753 4.07696 28.0067 4.14397 26.5355C4.21098 25.0643 4.24209 23.58 4.28038 22.1219V22.1088C4.28546 21.7623 4.41641 21.4321 4.64441 21.191C4.87241 20.9499 5.1788 20.8176 5.49616 20.8231C5.81353 20.8286 6.11588 20.9716 6.3367 21.2206C6.55752 21.4695 6.67873 21.8041 6.67365 22.1506L6.67126 22.1428Z" fill="#B55B52"/>
<path d="M5.89108 20.2325C2.95216 21.1706 3.33029 27.0085 3.33029 27.0085L7.50893 28.2367C7.50893 28.2367 8.20298 23.9615 8.14075 22.4276C8.07853 20.8335 7.51132 19.7177 5.89108 20.2325Z" fill="#89B1E8"/>
<path d="M1.63104 38.6268L0.15918 39.9935L2.22217 40.9133C2.22217 40.9133 2.86117 39.8497 2.56441 38.841L1.63104 38.6268Z" fill="#B55B52"/>
<path d="M0.419477 42.0787L1.36003 42.2068C1.46452 42.221 1.57039 42.1972 1.66125 42.1391C1.75211 42.081 1.82289 41.9918 1.86261 41.8854L2.2216 40.9132L0.158612 39.9934L0.00304955 41.5012C-0.0111507 41.638 0.0246127 41.7753 0.102577 41.8834C0.18054 41.9915 0.294412 42.0617 0.419477 42.0787Z" fill="#B55B52"/>
<path d="M4.9405 21.7509C4.80887 27.6044 6.0414 31.8769 6.05576 35.6922L15.5307 35.9065C15.4613 32.086 15.49 29.593 16.9954 22.7465C17.0608 22.4483 17.0686 22.1385 17.0182 21.8368C16.9678 21.5351 16.8604 21.2482 16.7027 20.9945C16.5451 20.7407 16.3407 20.5256 16.1026 20.3629C15.8646 20.2002 15.598 20.0936 15.3201 20.0497C14.7529 19.9582 14.1235 19.872 13.4845 19.8249C12.0525 19.6801 10.6129 19.6469 9.17658 19.7257C8.16662 19.804 7.08008 19.9661 6.30466 20.0941C5.9363 20.1539 5.59856 20.3521 5.34958 20.6545C5.10059 20.9569 4.95593 21.3446 4.9405 21.7509Z" fill="#89B1E8"/>
<path d="M13.7717 27.1601L10.962 27.1392C10.934 27.1405 10.9061 27.1352 10.8802 27.1236C10.8543 27.1121 10.831 27.0945 10.8119 27.0721C10.7928 27.0498 10.7784 27.0232 10.7696 26.9942C10.7608 26.9651 10.7578 26.9344 10.761 26.904L10.9166 25.4511C10.9267 25.3862 10.9574 25.3274 11.0034 25.2848C11.0494 25.2423 11.1076 25.2188 11.1678 25.2185L13.9751 25.2394C14.003 25.2377 14.0309 25.2426 14.0568 25.2539C14.0827 25.2652 14.1061 25.2825 14.1252 25.3046C14.1444 25.3268 14.1588 25.3532 14.1676 25.3822C14.1764 25.4111 14.1794 25.4417 14.1762 25.472L14.0206 26.9275C14.011 26.9922 13.9807 27.051 13.9352 27.0936C13.8896 27.1361 13.8317 27.1597 13.7717 27.1601Z" fill="white"/>
<path opacity="0.4" d="M9.19093 19.7282C9.19093 19.7282 7.64488 20.9094 9.27948 23.8727C10.6215 22.4474 12.0281 21.0964 13.494 19.8249L9.19093 19.7282Z" fill="white"/>
<path d="M13.169 14.5253C12.8698 16.0305 12.5444 18.7953 13.4945 19.8249C12.0005 20.4675 10.6229 21.3947 9.42593 22.5635C8.37529 20.4573 9.18661 19.7256 9.18661 19.7256C10.7374 19.3597 10.7231 18.108 10.4766 16.9268L13.169 14.5253Z" fill="#B55B52"/>
<path opacity="0.2" d="M12.8771 14.7866C12.8398 15.686 12.6268 16.5663 12.2525 17.3684C11.9916 17.9198 11.2952 18.1524 10.5939 18.1968C10.6171 17.7697 10.5791 17.3412 10.4814 16.9268L12.8771 14.7866Z" fill="black"/>
<path d="M15.4111 12.6831C14.6932 15.0925 14.4538 16.1273 13.0179 17.068C10.8759 18.4818 8.32229 17.0053 8.3558 14.4156C8.3893 12.0847 9.55243 8.5386 11.9624 8.17536C12.4961 8.091 13.0407 8.1572 13.5443 8.36767C14.048 8.57814 14.4939 8.92587 14.8396 9.37775C15.1853 9.82963 15.4193 10.3706 15.5194 10.9492C15.6194 11.5278 15.5822 12.1247 15.4111 12.6831Z" fill="#B55B52"/>
<path d="M9.55957 9.51851C10.7562 9.88697 13.6712 10.1614 14.2552 9.77983C13.7071 10.6997 14.2288 13.2136 15.076 13.8224C16.2176 12.8216 16.4713 10.4018 15.4159 9.20232C14.3605 8.00287 11.0242 6.56823 9.55957 9.51851Z" fill="#263238"/>
<path d="M15.7455 14.1569C15.67 14.3865 15.5531 14.5972 15.4019 14.7767C15.2506 14.9562 15.068 15.1009 14.8648 15.2022C14.3239 15.4635 13.9649 14.9618 14.0415 14.3529C14.1109 13.8067 14.4771 13.0097 15.0563 12.9993C15.1813 13.0012 15.3039 13.0366 15.4134 13.1025C15.5228 13.1685 15.6157 13.2628 15.6838 13.3772C15.752 13.4917 15.7932 13.6227 15.804 13.7586C15.8148 13.8946 15.7947 14.0314 15.7455 14.1569Z" fill="#B55B52"/>
<path d="M15.6834 35.3027L16.0951 36.2408C16.1262 36.3114 16.0472 36.3846 15.9371 36.382L5.99787 36.1546C5.9141 36.1546 5.8447 36.105 5.83991 36.0449L5.77051 35.1172C5.77051 35.0545 5.84231 35.0022 5.93564 35.0022L15.5326 35.2217C15.562 35.2198 15.5914 35.2262 15.6178 35.2404C15.6443 35.2546 15.6669 35.2761 15.6834 35.3027Z" fill="#263238"/>
<path d="M14.3751 36.4448H14.6311C14.6814 36.4448 14.7221 36.416 14.7197 36.3821L14.6216 35.1748C14.6216 35.1408 14.5737 35.1094 14.5234 35.1094H14.265C14.2147 35.1094 14.1764 35.1356 14.1788 35.1722L14.2746 36.3768C14.2793 36.416 14.3224 36.4448 14.3751 36.4448Z" fill="#89B1E8"/>
<path d="M6.71865 36.2722H6.97712C7.02738 36.2722 7.06807 36.2461 7.06567 36.2095L6.96755 35.0022C6.96755 34.9682 6.91969 34.9395 6.86943 34.9369H6.61096C6.5607 34.9369 6.52001 34.963 6.5248 34.9996L6.62053 36.2043C6.62531 36.2409 6.66839 36.2696 6.71865 36.2722Z" fill="#89B1E8"/>
<path d="M10.5455 36.3585H10.804C10.8543 36.3585 10.8949 36.3323 10.8925 36.2958L10.7944 35.0911C10.7944 35.0545 10.7466 35.0258 10.6963 35.0258H10.4378C10.3876 35.0258 10.3493 35.0545 10.3517 35.0885L10.4474 36.2958C10.4522 36.3271 10.4953 36.3585 10.5455 36.3585Z" fill="#89B1E8"/>
<path d="M11.9673 12.4818C11.9194 12.6804 11.7854 12.8163 11.6657 12.7824C11.5461 12.7484 11.4886 12.5602 11.5341 12.3616C11.5796 12.163 11.716 12.0271 11.8356 12.0611C11.9553 12.0951 12.0127 12.2832 11.9673 12.4818Z" fill="#263238"/>
<path d="M9.90434 11.907C9.85887 12.1082 9.72485 12.2415 9.60519 12.2075C9.48552 12.1735 9.42569 11.988 9.47355 11.7868C9.52142 11.5856 9.65305 11.4549 9.77271 11.4863C9.89238 11.5176 9.95221 11.7084 9.90434 11.907Z" fill="#263238"/>
<path d="M9.82287 11.5124L9.41602 11.251C9.41602 11.251 9.55482 11.6901 9.82287 11.5124Z" fill="#263238"/>
<path d="M10.3614 12.4008C10.0934 12.8104 9.77535 13.1779 9.41602 13.4931C9.49187 13.5913 9.58641 13.6702 9.69305 13.7243C9.79969 13.7785 9.91587 13.8066 10.0335 13.8067L10.3614 12.4008Z" fill="#A02724"/>
<path d="M10.476 14.5881C10.4676 14.5803 10.4613 14.57 10.4579 14.5584C10.4545 14.5469 10.4542 14.5346 10.4568 14.5228C10.459 14.5152 10.4625 14.5082 10.4672 14.5021C10.4719 14.4961 10.4776 14.4911 10.4841 14.4874C10.4905 14.4838 10.4976 14.4816 10.5048 14.4809C10.512 14.4803 10.5193 14.4812 10.5262 14.4836C10.7498 14.5601 10.9867 14.5782 11.2178 14.5365C11.4489 14.4947 11.6678 14.3943 11.8569 14.2432C11.868 14.2328 11.8824 14.2277 11.897 14.2289C11.9116 14.2301 11.9252 14.2376 11.9347 14.2497C11.9442 14.2619 11.9489 14.2776 11.9478 14.2935C11.9467 14.3095 11.9398 14.3243 11.9287 14.3347C11.7264 14.5014 11.4901 14.6122 11.2401 14.6577C10.99 14.7032 10.7337 14.682 10.4927 14.596L10.476 14.5881Z" fill="#263238"/>
<path d="M13.0919 11.5646C13.0774 11.5505 13.0653 11.5337 13.056 11.515C13.0066 11.3734 12.927 11.2466 12.8238 11.1453C12.7206 11.0439 12.5967 10.9709 12.4625 10.9323C12.4336 10.9267 12.408 10.9089 12.3911 10.8826C12.3743 10.8564 12.3677 10.824 12.3728 10.7924C12.3778 10.7609 12.3942 10.7329 12.4182 10.7145C12.4422 10.6961 12.4719 10.6889 12.5008 10.6945C12.6715 10.7406 12.8296 10.8305 12.962 10.9569C13.0944 11.0833 13.1972 11.2424 13.2619 11.4209C13.2703 11.4455 13.2713 11.4724 13.2648 11.4976C13.2582 11.5228 13.2445 11.5451 13.2255 11.5612C13.2065 11.5773 13.1832 11.5863 13.1592 11.5869C13.1352 11.5875 13.1116 11.5797 13.0919 11.5646Z" fill="#263238"/>
<path d="M9.49771 10.6369L9.48335 10.6212C9.46275 10.5987 9.45117 10.5681 9.45117 10.5363C9.45117 10.5044 9.46275 10.4739 9.48335 10.4514C9.60972 10.3219 9.76224 10.2267 9.92855 10.1736C10.0949 10.1205 10.2703 10.1109 10.4407 10.1456C10.4549 10.1496 10.4683 10.1566 10.48 10.1662C10.4917 10.1759 10.5015 10.188 10.5089 10.2019C10.5163 10.2158 10.521 10.2311 10.5228 10.2471C10.5247 10.263 10.5236 10.2791 10.5196 10.2946C10.5123 10.3254 10.4941 10.3518 10.469 10.368C10.4438 10.3841 10.4139 10.3887 10.3856 10.3808C10.2491 10.3527 10.1084 10.3606 9.97518 10.4037C9.84198 10.4469 9.72014 10.5242 9.61977 10.6291C9.60241 10.6434 9.58155 10.6518 9.55983 10.6532C9.5381 10.6546 9.51649 10.6489 9.49771 10.6369Z" fill="#263238"/>
<path d="M16.9935 21.8972C17.6899 22.9033 18.3409 23.9172 18.9727 24.9703C19.2863 25.493 19.5974 26.0156 19.8918 26.58C20.2088 27.1509 20.4934 27.7426 20.7438 28.3518C20.8195 28.5417 20.885 28.7362 20.94 28.9345C20.9798 29.0875 21.0071 29.244 21.0214 29.4023C21.0253 29.4658 21.0253 29.5295 21.0214 29.593V29.7106C21.017 29.7624 21.0098 29.8139 20.9998 29.8648L20.9831 29.9458V29.9824V30.0111L20.9639 30.0686C20.8515 30.3822 20.7629 30.6984 20.6289 31.0015C20.3862 31.6228 20.0947 32.22 19.7577 32.7863C19.4107 33.3581 19.0043 33.8843 18.5467 34.3542C18.3136 34.593 18.0631 34.8106 17.7976 35.0049C17.6612 35.1016 17.5224 35.1957 17.3788 35.2819L17.1515 35.4021C17.0653 35.4439 17.0031 35.4727 16.8786 35.5223L16.4239 34.3307C16.4563 34.2961 16.4907 34.2638 16.5268 34.234L16.6585 34.1086C16.747 34.0224 16.8332 33.9283 16.9169 33.8316C17.0874 33.6319 17.2472 33.4216 17.3956 33.2018C17.6879 32.753 17.9426 32.2764 18.1566 31.7777C18.2572 31.5163 18.3672 31.2707 18.451 30.9937C18.5348 30.7167 18.6281 30.4711 18.7047 30.2097C18.7813 29.9484 18.8411 29.661 18.9153 29.3892V29.3396V29.3134V29.3369V29.3892C18.9153 29.4206 18.9033 29.4676 18.9009 29.4859C18.8998 29.5059 18.8998 29.526 18.9009 29.546V29.6218C18.9009 29.6819 18.9009 29.6636 18.9009 29.6375C18.9009 29.6113 18.8339 29.4702 18.7837 29.3605C18.5659 28.9136 18.2739 28.3988 17.9747 27.9075C17.6756 27.4163 17.3645 26.9119 17.0462 26.418C16.4119 25.4276 15.7586 24.4268 15.1172 23.4442L16.9935 21.8972Z" fill="#B55B52"/>
<path d="M17.5121 35.214L15.6669 36.6382L14.8389 34.579C14.8389 34.579 15.9589 33.9231 16.842 34.3621L17.5121 35.214Z" fill="#B55B52"/>
<path d="M14.3823 36.808L13.9204 36.105C13.8327 35.9694 13.7969 35.8018 13.8206 35.6379C13.8443 35.4739 13.9256 35.3265 14.0473 35.227L14.8394 34.5789L15.6675 36.6381L15.1601 36.9804C15.0346 37.0646 14.8845 37.0936 14.7401 37.0616C14.5957 37.0296 14.4678 36.9389 14.3823 36.808Z" fill="#B55B52"/>
<path d="M13.3002 21.2752C12.6732 23.9955 16.5407 28.6522 16.5407 28.6522L19.7931 24.965C19.7931 24.965 18.3069 21.4999 16.366 20.4128C15.0114 19.655 13.5778 20.0757 13.3002 21.2752Z" fill="#89B1E8"/>
<path d="M11.8854 12.0873L11.4785 11.826C11.4785 11.826 11.6149 12.265 11.8854 12.0873Z" fill="#263238"/>
<path d="M7.72853 28.5425C7.71105 28.5424 7.69399 28.5366 7.67951 28.5259C7.66503 28.5152 7.65377 28.5001 7.64716 28.4824C7.63938 28.4592 7.6403 28.4336 7.6497 28.4111C7.65911 28.3886 7.67625 28.371 7.69741 28.3622L8.07076 28.2054C8.42047 28.0644 8.72243 27.8102 8.93626 27.4768C9.1501 27.1434 9.26562 26.7466 9.2674 26.3396L9.29372 22.5191C9.30129 22.2283 9.21717 21.9434 9.05541 21.7122C8.89366 21.4809 8.66408 21.3173 8.4051 21.2488C8.14611 21.1802 7.87343 21.2109 7.63265 21.3356C7.39187 21.4602 7.1976 21.6714 7.08235 21.9338L5.4645 25.3309C5.29068 25.6896 5.22051 26.0973 5.26324 26.5004C5.30596 26.9034 5.45958 27.2829 5.70383 27.5887L5.96709 27.9154C5.97595 27.9243 5.98299 27.9352 5.98774 27.9474C5.99248 27.9595 5.99484 27.9726 5.99465 27.9858C5.99446 27.999 5.99173 28.012 5.98663 28.024C5.98153 28.036 5.97419 28.0466 5.96507 28.0553C5.95595 28.064 5.94526 28.0704 5.9337 28.0743C5.92214 28.0782 5.90996 28.0793 5.89796 28.0777C5.88596 28.0761 5.87441 28.0717 5.86405 28.0649C5.8537 28.0581 5.84477 28.049 5.83785 28.0382L5.57459 27.6828C5.30505 27.3505 5.13475 26.9363 5.08643 26.4955C5.03811 26.0547 5.11406 25.6083 5.30415 25.2159L6.922 21.8188C7.06028 21.5289 7.28392 21.2982 7.55689 21.164C7.82986 21.0297 8.13627 20.9997 8.42676 21.0788C8.71725 21.1579 8.97491 21.3414 9.15823 21.5998C9.34155 21.8583 9.43986 22.1766 9.43732 22.5035L9.41099 26.3239C9.40906 26.7671 9.28404 27.1992 9.05243 27.5631C8.82083 27.927 8.49355 28.2057 8.11384 28.3622L7.7405 28.5164L7.72853 28.5425Z" fill="#263238"/>
<path d="M9.35333 23.3709C9.33107 23.3703 9.30984 23.3606 9.29387 23.3436C9.27791 23.3266 9.26837 23.3037 9.26718 23.2795C9.23324 22.9775 9.11631 22.6939 8.9318 22.4659C8.74728 22.238 8.50384 22.0765 8.23356 22.0026C7.96328 21.9288 7.67886 21.9461 7.41777 22.0523C7.15668 22.1584 6.93118 22.3485 6.771 22.5974C6.7655 22.6082 6.75811 22.6178 6.74924 22.6254C6.74037 22.6331 6.7302 22.6388 6.71931 22.6422C6.70842 22.6456 6.69702 22.6467 6.68577 22.6452C6.67452 22.6438 6.66363 22.64 6.65373 22.634C6.64383 22.628 6.63511 22.6199 6.62807 22.6102C6.62103 22.6006 6.6158 22.5895 6.61269 22.5776C6.60958 22.5657 6.60865 22.5532 6.60994 22.5409C6.61123 22.5287 6.61473 22.5168 6.62023 22.506C6.79831 22.2186 7.05295 21.9979 7.34969 21.8737C7.64643 21.7495 7.97094 21.7279 8.27932 21.8117C8.58769 21.8955 8.86504 22.0807 9.07383 22.3423C9.28262 22.6039 9.41277 22.9292 9.44667 23.2742C9.4467 23.299 9.43804 23.3228 9.42245 23.3408C9.40687 23.3588 9.38555 23.3696 9.36291 23.3709H9.35333Z" fill="#263238"/>
<path d="M8.42037 21.2831C8.40621 21.2829 8.39231 21.279 8.37981 21.2717C8.36732 21.2645 8.35661 21.254 8.34857 21.2413C8.30484 21.1353 8.28223 21.0204 8.28223 20.9042C8.28223 20.788 8.30484 20.6731 8.34857 20.5671C8.4107 20.3563 8.51545 20.1635 8.65506 20.0029C8.79467 19.8424 8.96557 19.7181 9.15511 19.6394C9.1656 19.6349 9.17683 19.6329 9.18809 19.6334C9.19935 19.6339 9.2104 19.6369 9.22052 19.6423C9.23065 19.6477 9.23963 19.6554 9.24691 19.6648C9.25419 19.6742 9.2596 19.6851 9.2628 19.6969C9.26973 19.7201 9.2681 19.7454 9.25828 19.7673C9.24845 19.7893 9.23119 19.8062 9.21015 19.8145C9.04783 19.8872 8.90191 19.9975 8.78249 20.1378C8.66306 20.2781 8.57299 20.4451 8.5185 20.6272C8.48281 20.7081 8.46211 20.796 8.45759 20.8857C8.45307 20.9753 8.46482 21.0651 8.49217 21.1498C8.49836 21.1603 8.50259 21.172 8.50462 21.1842C8.50665 21.1965 8.50644 21.209 8.50399 21.2212C8.50154 21.2333 8.49691 21.2448 8.49036 21.255C8.48381 21.2652 8.47548 21.2739 8.46584 21.2805C8.45108 21.2853 8.43551 21.2861 8.42037 21.2831Z" fill="#263238"/>
<path d="M7.53197 28.3988C7.49129 28.5687 7.53197 28.7307 7.64685 28.7594C7.76173 28.7882 7.86703 28.6706 7.90532 28.4981C7.94362 28.3256 7.89096 28.1636 7.78805 28.1375C7.68514 28.1114 7.57026 28.2263 7.53197 28.3988Z" fill="#263238"/>
<path d="M14.325 23.8857C14.4015 24.2803 14.66 24.5521 14.897 24.4972C15.1339 24.4423 15.2631 24.0739 15.1841 23.6819C15.1052 23.2899 14.8491 23.0129 14.6122 23.0704C14.3752 23.1279 14.246 23.5016 14.325 23.8857Z" fill="#263238"/>
<path d="M15.0732 23.7629C15.0622 23.7633 15.0512 23.7612 15.041 23.757C15.0307 23.7527 15.0213 23.7462 15.0133 23.738C15.0053 23.7297 14.9988 23.7198 14.9943 23.7089C14.9898 23.6979 14.9874 23.6861 14.987 23.6741C14.9368 22.229 14.4342 20.4337 13.4554 19.9032C13.4351 19.892 13.4198 19.8726 13.4126 19.8491C13.4055 19.8256 13.4071 19.8 13.4171 19.7778C13.4219 19.7666 13.4288 19.7566 13.4372 19.7484C13.4457 19.7402 13.4556 19.734 13.4663 19.7301C13.4771 19.7262 13.4884 19.7247 13.4997 19.7257C13.511 19.7267 13.5219 19.7302 13.5319 19.736C14.5802 20.3031 15.1043 22.1192 15.157 23.6558C15.158 23.6681 15.1566 23.6805 15.153 23.6922C15.1493 23.7039 15.1435 23.7146 15.1358 23.7237C15.1282 23.7328 15.1189 23.7401 15.1085 23.745C15.0981 23.75 15.0869 23.7525 15.0756 23.7525L15.0732 23.7629Z" fill="#263238"/>
<path d="M14.0687 23.9197C14.119 24.2568 14.3416 24.4972 14.5665 24.458C14.7915 24.4188 14.9351 24.1131 14.8848 23.7734C14.8346 23.4337 14.6096 23.1959 14.3847 23.2351C14.1597 23.2743 14.0185 23.58 14.0687 23.9197Z" fill="white"/>
<path d="M14.0489 23.9484C14.1207 24.3665 14.3218 24.6749 14.4965 24.6383C14.6712 24.6017 14.7502 24.2359 14.6784 23.8178C14.6066 23.3997 14.4055 23.0913 14.2308 23.1279C14.0561 23.1645 13.9747 23.5303 14.0489 23.9484Z" fill="#263238"/>
<path d="M5.72344 27.9049C5.68515 28.0773 5.7378 28.2393 5.84071 28.2655C5.94362 28.2916 6.0585 28.1792 6.09918 28.0042C6.13987 27.8291 6.08482 27.6723 5.98191 27.6435C5.879 27.6148 5.76412 27.735 5.72344 27.9049Z" fill="#263238"/>
<path d="M31.9387 6.62561C30.4238 6.9209 30.2323 6.76934 30.2132 5.58034C30.194 4.39135 29.6436 2.40794 30.4094 1.78601C30.462 1.73158 30.5267 1.69316 30.5971 1.67458C30.6675 1.656 30.7412 1.65791 30.8107 1.68013C30.8802 1.70234 30.9432 1.74408 30.9933 1.80118C31.0434 1.85828 31.0789 1.92873 31.0963 2.00551C31.1431 1.87509 31.2341 1.7694 31.3505 1.71049C31.4669 1.65158 31.5996 1.644 31.7209 1.68932C31.7521 1.44368 31.788 0.813902 32.1996 0.644045C32.6112 0.474189 32.9894 0.881846 32.9894 0.881846C32.9894 0.881846 32.9583 -0.0876456 33.5566 0.00642887C33.7352 0.037595 33.9011 0.126825 34.0326 0.262476C34.1641 0.398126 34.2551 0.573899 34.2937 0.766865C34.2937 0.766865 34.6383 0.218098 35.105 0.434992C35.5717 0.651886 35.4736 1.2895 35.4736 1.2895C35.4736 1.2895 35.969 1.02818 36.3376 1.32347C36.7061 1.61876 36.4381 2.09175 36.4381 2.09175C36.4381 2.09175 36.7731 1.151 37.4121 1.67103C37.9865 2.1414 37.4648 2.87832 37.4648 2.87832C37.4648 2.87832 38.0966 2.76595 38.2498 3.1135C38.7667 4.29727 36.7971 5.61954 36.7324 7.61862C33.7074 8.86772 31.9387 6.62561 31.9387 6.62561Z" fill="#263238"/>
<path d="M21.0204 38.3966L20.0104 38.1928L18.675 39.5856C18.6023 39.6612 18.5449 39.7526 18.5066 39.8539C18.4683 39.9551 18.4498 40.0641 18.4524 40.1736L18.4715 41.3129C18.4739 41.5078 18.5426 41.6946 18.6643 41.8372C18.7859 41.9797 18.9519 42.0676 19.1297 42.0838L19.594 42.1283C19.7629 42.1457 19.932 42.0973 20.0713 41.9915C20.2106 41.8858 20.3111 41.7297 20.355 41.5507L20.5944 40.6205C20.5944 40.6205 21.913 38.9193 21.0204 38.3966Z" fill="#FFB573"/>
<path d="M31.2214 17.5592C30.5441 19.4747 29.8692 21.398 29.2183 23.3265C28.5673 25.255 27.9211 27.1914 27.3156 29.0964L27.2079 29.4492L27.1337 29.6791C27.105 29.7654 27.0763 29.8542 27.05 29.9222C26.9375 30.2331 26.825 30.4892 26.7125 30.7479C26.4875 31.2706 26.2602 31.7383 26.0304 32.2113C25.5685 33.1521 25.0923 34.0588 24.6112 34.963C23.6539 36.7739 22.6966 38.543 21.7058 40.3383L18.6592 38.2687C19.6644 36.5622 20.6336 34.801 21.5622 33.0423C22.0193 32.159 22.4693 31.2732 22.8881 30.3951C23.0963 29.9561 23.2973 29.5171 23.4744 29.0886C23.5582 28.8821 23.642 28.6704 23.697 28.498C23.7161 28.4483 23.7233 28.4144 23.7353 28.3804L23.7736 28.2445L23.8837 27.863C24.4605 25.8561 25.0659 23.9171 25.6499 21.9493L27.4018 16.0671L31.2214 17.5592Z" fill="#89B1E8"/>
<path opacity="0.6" d="M31.2214 17.5592C30.5441 19.4747 29.8692 21.398 29.2183 23.3265C28.5673 25.255 27.9211 27.1914 27.3156 29.0964L27.2079 29.4492L27.1337 29.6791C27.105 29.7654 27.0763 29.8542 27.05 29.9222C26.9375 30.2331 26.825 30.4892 26.7125 30.7479C26.4875 31.2706 26.2602 31.7383 26.0304 32.2113C25.5685 33.1521 25.0923 34.0588 24.6112 34.963C23.6539 36.7739 22.6966 38.543 21.7058 40.3383L18.6592 38.2687C19.6644 36.5622 20.6336 34.801 21.5622 33.0423C22.0193 32.159 22.4693 31.2732 22.8881 30.3951C23.0963 29.9561 23.2973 29.5171 23.4744 29.0886C23.5582 28.8821 23.642 28.6704 23.697 28.498C23.7161 28.4483 23.7233 28.4144 23.7353 28.3804L23.7736 28.2445L23.8837 27.863C24.4605 25.8561 25.0659 23.9171 25.6499 21.9493L27.4018 16.0671L31.2214 17.5592Z" fill="white"/>
<path d="M22.093 87.5009L19.9463 87.6159L20.961 81.5115L23.0025 82.0237L22.093 87.5009Z" fill="#FFB573"/>
<path d="M37.4934 87.5898H35.3467L35.3539 82.1622H37.4982L37.4934 87.5898Z" fill="#FFB573"/>
<path d="M35.1437 87.318H37.7596C37.8016 87.3173 37.8425 87.333 37.875 87.3622C37.9074 87.3914 37.9293 87.4322 37.9367 87.4774L38.2813 89.568C38.289 89.6197 38.2862 89.6726 38.2732 89.723C38.2602 89.7735 38.2373 89.8202 38.2061 89.86C38.1749 89.8998 38.1362 89.9317 38.0925 89.9535C38.0489 89.9752 38.0014 89.9864 37.9534 89.9861C37.111 89.9704 36.4983 89.9155 35.4381 89.9155C34.7871 89.9155 32.8055 89.9887 31.9152 89.9887C31.0249 89.9887 30.934 89.0166 31.3049 88.9277C32.9802 88.5331 34.2415 87.9896 34.7895 87.4696C34.8867 87.3735 35.0127 87.3196 35.1437 87.318Z" fill="#263238"/>
<path opacity="0.2" d="M20.9613 81.5142L20.4922 84.3364L22.5336 84.8486L23.0027 82.0263L20.9613 81.5142Z" fill="black"/>
<path opacity="0.2" d="M37.4993 82.1622H35.3525V84.9583H37.4993V82.1622Z" fill="black"/>
<path d="M39.2271 17.4912C37.5518 25.7201 37.997 33.8419 37.8175 35.6005L26.3609 34.7748C25.1643 24.8447 26.4997 18.5103 27.2584 15.9128C27.3817 15.4841 27.615 15.1029 27.9305 14.8143C28.2461 14.5258 28.6307 14.3421 29.039 14.2848C30.7426 14.0809 32.4582 14.0224 34.1701 14.1097C35.3292 14.1854 36.4795 14.3761 37.6069 14.6794C38.1628 14.8183 38.6457 15.1924 38.9494 15.7195C39.2531 16.2466 39.353 16.8838 39.2271 17.4912Z" fill="#89B1E8"/>
<path d="M35.773 8.53326C35.3948 10.0829 34.9473 12.8267 35.6677 14.2143C35.7801 14.4312 35.5647 14.6167 35.5552 14.8676C35.5288 15.6359 34.5763 15.8658 32.8723 15.8763C31.1683 15.8868 30.4384 15.1106 30.9027 14.3789C30.9738 14.2674 31.082 14.1906 31.2042 14.1647C32.8005 13.7753 32.8316 12.4086 32.6138 11.1046L35.773 8.53326Z" fill="#FFB573"/>
<path opacity="0.4" d="M32.75 15.4503C33.1976 16.13 33.4815 16.9217 33.5757 17.7525C35.2773 16.8797 36.0886 14.7604 36.0886 14.7604L35.5764 14.162C35.5764 14.162 33.6858 14.5514 32.75 15.4503Z" fill="black"/>
<path opacity="0.4" d="M32.5825 15.4582C31.956 16.015 31.4272 16.6915 31.0221 17.4546C29.8326 16.6498 30.2251 14.3554 30.2251 14.3554L31.1944 14.1464C31.1944 14.1464 31.6276 14.5828 32.5825 15.4582Z" fill="black"/>
<path d="M32.6594 15.4006L32.2932 15.4398L31.6733 15.8867C31.6338 16.1558 31.6776 16.4317 31.7978 16.6706C32.1578 16.7474 32.5253 16.7746 32.8915 16.7516C33.1372 16.6221 33.3331 16.4018 33.4443 16.1297L32.9896 15.4947L32.6594 15.4006Z" fill="#263238"/>
<path d="M32.6592 15.4007C33.1189 16.029 33.4716 16.7424 33.7003 17.5069C35.4019 16.6341 36.3927 14.5488 36.3927 14.5488L35.5718 13.7648C35.5718 13.7648 33.5949 14.507 32.6592 15.4007Z" fill="#89B1E8"/>
<path d="M32.6593 15.4007C32.0026 15.8531 31.4281 16.4343 30.9649 17.1149C29.7683 16.3127 30.2254 14.1516 30.2254 14.1516L31.1947 13.9425C31.1947 13.9425 31.7068 14.5305 32.6593 15.4007Z" fill="#89B1E8"/>
<path opacity="0.2" d="M34.4859 9.58112L32.6191 11.102C32.6757 11.4163 32.7069 11.7355 32.7125 12.0558C33.385 12.0009 34.3519 11.2718 34.4691 10.5088C34.5254 10.2031 34.531 9.88896 34.4859 9.58112Z" fill="black"/>
<path d="M36.1154 5.97234C35.845 8.27978 35.7947 9.6308 34.6507 10.7571C32.93 12.4269 30.3763 11.1778 30.0102 8.82855C29.6799 6.71448 30.1777 3.29645 32.3101 2.52556C32.7796 2.35277 33.2817 2.31393 33.7689 2.41275C34.256 2.51157 34.7118 2.74475 35.0931 3.09015C35.4745 3.43554 35.7685 3.88166 35.9475 4.38612C36.1264 4.89058 36.1842 5.43662 36.1154 5.97234Z" fill="#FFB573"/>
<path d="M35.5982 8.05767C35.1196 7.55333 35.4187 5.13875 35.6605 4.44626C34.4638 4.57169 30.5963 4.56647 30.7423 3.40099C30.8883 2.23551 32.2955 1.24511 34.5955 2.06304C36.5101 2.74508 36.9887 3.78774 36.9887 4.63963C37.0174 6.39046 35.5982 8.05767 35.5982 8.05767Z" fill="#263238"/>
<path d="M36.8576 8.08382C36.6303 8.55809 36.242 8.91639 35.7758 9.08206C35.1656 9.2885 34.864 8.6744 35.0363 8.01588C35.1895 7.4253 35.6945 6.60215 36.3047 6.68577C36.915 6.76939 37.1376 7.49586 36.8576 8.08382Z" fill="#FFB573"/>
<path d="M19.793 83.6203L23.3422 84.4748C23.3422 84.4748 26.7933 69.7078 27.8176 62.4902C28.1311 60.2951 28.8587 57.1619 29.5216 53.8667C30.3568 49.7117 31.4075 45.217 32.2691 41.6971C33.1785 37.989 33.8534 35.3235 33.8534 35.3235L26.3601 34.7826C26.3601 34.7826 22.8731 54.0966 22.1695 61.2071C21.4347 68.5972 19.793 83.6203 19.793 83.6203Z" fill="#263238"/>
<path opacity="0.2" d="M29.5214 53.8615C30.3567 49.7065 31.4073 45.2119 32.2689 41.6919L31.4815 39.8627C29.622 42.2877 29.1457 49.7901 29.5214 53.8615Z" fill="black"/>
<path d="M29.9316 35.0335C29.9316 35.0335 31.4825 54.7709 32.0856 61.6043C32.7557 69.0885 34.553 84.42 34.553 84.42H38.1573C38.1573 84.42 38.32 68.0928 37.6786 60.8648C37.5877 46.6543 37.815 35.6032 37.815 35.6032L29.9316 35.0335Z" fill="#263238"/>
<path d="M34.0936 84.5115H38.7221V83.0011L33.9141 82.711L34.0936 84.5115Z" fill="#89B1E8"/>
<path d="M19.3291 83.6047L23.558 84.6238L23.8595 83.1317L19.432 81.9139L19.3291 83.6047Z" fill="#89B1E8"/>
<path d="M33.0256 6.38517C33.0256 6.57332 32.9131 6.71966 32.8007 6.71182C32.6882 6.70398 32.6044 6.54458 32.6164 6.35643C32.6283 6.16828 32.7289 6.02194 32.8413 6.02978C32.9538 6.03762 33.0376 6.19702 33.0256 6.38517Z" fill="#263238"/>
<path d="M31.0725 6.25456C31.0725 6.44271 30.96 6.58905 30.8475 6.58121C30.735 6.57337 30.6513 6.41396 30.6632 6.22581C30.6752 6.03766 30.7757 5.89133 30.8882 5.89917C31.0007 5.90701 31.0845 6.05596 31.0725 6.25456Z" fill="#263238"/>
<path d="M31.52 6.38525C31.2787 6.94586 30.9688 7.46805 30.5986 7.93748C30.8834 8.27197 31.4123 8.16744 31.4123 8.16744L31.52 6.38525Z" fill="#ED893E"/>
<path d="M32.1114 8.72397C32.3054 8.71203 32.4951 8.65724 32.6691 8.56291C32.8431 8.46859 32.9978 8.33669 33.1238 8.1752C33.1327 8.16499 33.1377 8.15142 33.1377 8.13731C33.1377 8.1232 33.1327 8.10963 33.1238 8.09942C33.114 8.0895 33.1012 8.08398 33.0879 8.08398C33.0745 8.08398 33.0617 8.0895 33.052 8.09942C32.9099 8.27648 32.7317 8.41461 32.5317 8.50267C32.3318 8.59072 32.1156 8.62625 31.9008 8.60638C31.8942 8.60566 31.8875 8.60637 31.8812 8.60848C31.8748 8.61059 31.8689 8.61406 31.8638 8.61867C31.8587 8.62329 31.8545 8.62897 31.8514 8.63538C31.8483 8.64179 31.8464 8.64881 31.8458 8.65603C31.8451 8.67085 31.8497 8.68539 31.8586 8.69659C31.8675 8.7078 31.8801 8.7148 31.8936 8.71613C31.966 8.72354 32.0387 8.72616 32.1114 8.72397Z" fill="#263238"/>
<path d="M33.502 5.73197C33.519 5.72984 33.5353 5.72359 33.5498 5.71368C33.5725 5.69761 33.5885 5.67242 33.5944 5.64356C33.6002 5.6147 33.5954 5.5845 33.5809 5.5595C33.4955 5.40915 33.3783 5.28328 33.2393 5.19237C33.1003 5.10146 32.9433 5.04815 32.7816 5.03687C32.7573 5.04095 32.7351 5.05439 32.7191 5.07476C32.7031 5.09513 32.6943 5.12109 32.6943 5.14793C32.6943 5.17477 32.7031 5.20072 32.7191 5.22109C32.7351 5.24146 32.7573 5.25491 32.7816 5.25899C32.9093 5.26929 33.033 5.31257 33.1424 5.38526C33.2519 5.45795 33.3439 5.55797 33.411 5.6771C33.42 5.69462 33.4332 5.70905 33.4493 5.71876C33.4654 5.72846 33.4836 5.73304 33.502 5.73197Z" fill="#263238"/>
<path d="M30.1084 5.45231C30.1251 5.45103 30.1412 5.44537 30.1553 5.43582C30.1695 5.42626 30.1813 5.41308 30.1898 5.39743C30.2509 5.27599 30.3373 5.172 30.4421 5.09391C30.5469 5.01581 30.6671 4.9658 30.7929 4.94796C30.8196 4.94532 30.8443 4.93169 30.8621 4.90984C30.8799 4.888 30.8894 4.85958 30.8887 4.83037C30.8868 4.80102 30.8745 4.77363 30.8544 4.75409C30.8342 4.73455 30.8079 4.7244 30.781 4.72584C30.6203 4.74704 30.4666 4.81009 30.3329 4.90969C30.1992 5.00928 30.0894 5.1425 30.0127 5.29813C29.9998 5.32345 29.9966 5.35332 30.0037 5.38122C30.0109 5.40913 30.0279 5.4328 30.051 5.44708C30.069 5.45597 30.0893 5.45782 30.1084 5.45231Z" fill="#263238"/>
<path d="M34.418 87.7256C34.6086 87.7206 34.798 87.6926 34.9828 87.642C34.9925 87.6396 35.0013 87.634 35.0082 87.6261C35.015 87.6182 35.0195 87.6083 35.0211 87.5976C35.0237 87.5874 35.0232 87.5766 35.0198 87.5667C35.0163 87.5568 35.0101 87.5484 35.002 87.5427C34.9254 87.4878 34.2505 87.02 34.0064 87.1559C33.98 87.171 33.9576 87.1935 33.9417 87.221C33.9257 87.2485 33.9167 87.2802 33.9154 87.3127C33.9069 87.3665 33.9111 87.4218 33.9274 87.4735C33.9437 87.5251 33.9717 87.5714 34.0088 87.608C34.1287 87.6976 34.2733 87.7392 34.418 87.7256ZM34.8368 87.5636C34.4707 87.6446 34.1907 87.6289 34.0782 87.5218C34.0527 87.497 34.0335 87.4655 34.0226 87.4302C34.0117 87.3949 34.0094 87.3571 34.016 87.3206C34.016 87.2788 34.0351 87.2631 34.0495 87.2552C34.1763 87.1873 34.564 87.3859 34.8368 87.5636Z" fill="#89B1E8"/>
<path d="M34.9711 87.6446C34.9795 87.6482 34.9889 87.6482 34.9974 87.6446C35.0056 87.6398 35.0123 87.6326 35.017 87.6238C35.0216 87.6151 35.024 87.6051 35.0237 87.5949C35.0237 87.5662 34.9974 86.8894 34.7557 86.6673C34.7265 86.6393 34.6922 86.6186 34.655 86.6064C34.6179 86.5942 34.5787 86.5909 34.5403 86.5967C34.502 86.5968 34.4648 86.6111 34.4348 86.6372C34.4048 86.6633 34.3838 86.6997 34.3752 86.7404C34.3201 87.0018 34.7294 87.5244 34.9471 87.6472C34.9552 87.649 34.9635 87.6481 34.9711 87.6446ZM34.5738 86.6934C34.6164 86.6939 34.6573 86.7116 34.6887 86.7431C34.8418 86.8842 34.8969 87.2788 34.9136 87.4774C34.7006 87.2944 34.435 86.9051 34.4733 86.7509C34.4733 86.7378 34.4733 86.7038 34.5499 86.696H34.5738V86.6934Z" fill="#89B1E8"/>
<path d="M19.626 86.5837L22.1437 87.3677C22.1839 87.3803 22.2188 87.4078 22.2424 87.4455C22.266 87.4831 22.2768 87.5286 22.273 87.5741L22.0863 89.6829C22.0802 89.7348 22.0639 89.7847 22.0386 89.829C22.0132 89.8734 21.9794 89.9113 21.9394 89.9401C21.8994 89.9688 21.8542 89.9878 21.8068 89.9958C21.7595 90.0037 21.7111 90.0004 21.6651 89.9861C20.8585 89.7248 20.2841 89.487 19.2718 89.1708C18.6448 88.9774 16.6033 88.1778 15.859 87.6238C15.1147 87.0698 15.5527 86.2153 15.9045 86.372C17.4864 87.0724 18.5993 86.96 19.255 86.6334C19.3694 86.5694 19.5009 86.5518 19.626 86.5837Z" fill="#263238"/>
<path d="M18.8238 86.7614C19.0088 86.8117 19.1981 86.8406 19.3887 86.8477C19.3989 86.8484 19.4091 86.8458 19.4181 86.8402C19.427 86.8346 19.4343 86.8263 19.4389 86.8163C19.4446 86.8075 19.4476 86.797 19.4476 86.7862C19.4476 86.7755 19.4446 86.765 19.4389 86.7562C19.3791 86.683 18.8454 86.035 18.5797 86.0898C18.5502 86.0969 18.5228 86.1122 18.5001 86.1342C18.4775 86.1561 18.4604 86.184 18.4505 86.2153C18.4298 86.2642 18.4205 86.3179 18.4234 86.3718C18.4263 86.4256 18.4414 86.4777 18.4672 86.5236C18.5585 86.6441 18.684 86.7278 18.8238 86.7614ZM19.269 86.7301C18.8956 86.6987 18.63 86.5994 18.551 86.4687C18.5349 86.4363 18.5264 86.3999 18.5264 86.3629C18.5264 86.326 18.5349 86.2896 18.551 86.2571C18.5654 86.2153 18.5845 86.2074 18.6013 86.2048C18.7377 86.1709 19.0488 86.4792 19.269 86.7405V86.7301Z" fill="#89B1E8"/>
<path d="M19.3764 86.845C19.3858 86.8476 19.3957 86.8476 19.4051 86.845C19.4143 86.8425 19.4228 86.8372 19.4295 86.8299C19.4363 86.8225 19.4411 86.8133 19.4434 86.8032C19.4434 86.777 19.5918 86.1185 19.4171 85.8311C19.3957 85.7961 19.3678 85.7663 19.3352 85.7438C19.3027 85.7213 19.2661 85.7065 19.228 85.7004C19.1909 85.6892 19.1514 85.6918 19.1158 85.7079C19.0803 85.724 19.0507 85.7526 19.0317 85.7893C18.9121 86.0245 19.1801 86.6412 19.3548 86.8345C19.3611 86.8399 19.3685 86.8435 19.3764 86.845ZM19.2304 85.8128C19.2713 85.8252 19.3064 85.8542 19.3285 85.8938C19.4434 86.0767 19.3955 86.4739 19.3644 86.6778C19.2041 86.44 19.0509 85.9879 19.1251 85.8494C19.1251 85.8363 19.1466 85.8076 19.2136 85.818L19.2304 85.8128Z" fill="#89B1E8"/>
<path d="M35.8091 14.0105C35.7837 14.006 35.7576 14.0079 35.733 14.0161C35.7083 14.0243 35.6856 14.0384 35.6667 14.0576C35.6478 14.0767 35.6331 14.1003 35.6238 14.1265C35.6145 14.1528 35.6107 14.181 35.6129 14.2091C35.6966 15.6097 33.6983 18.1288 33.2196 25.6731C32.9348 30.2618 32.674 44.569 32.8654 52.0113C32.8682 52.109 32.8913 52.2047 32.9331 52.2911C32.9748 52.3775 33.034 52.4524 33.1062 52.5101C33.1785 52.5678 33.2618 52.6068 33.3498 52.624C33.4379 52.6413 33.5284 52.6364 33.6145 52.6097C37.147 51.5331 38.8151 54.1437 39.4948 51.0654C39.4589 47.3782 38.4369 34.1398 38.7002 31.0014C38.9635 27.8629 40.0572 19.3361 40.33 17.0627C40.5717 15.0871 36.7976 14.2064 35.8091 14.0105Z" fill="#89B1E8"/>
<path opacity="0.7" d="M35.8091 14.0105C35.7837 14.006 35.7576 14.0079 35.733 14.0161C35.7083 14.0243 35.6856 14.0384 35.6667 14.0576C35.6478 14.0767 35.6331 14.1003 35.6238 14.1265C35.6145 14.1528 35.6107 14.181 35.6129 14.2091C35.6966 15.6097 33.6983 18.1288 33.2196 25.6731C32.9348 30.2618 32.674 44.569 32.8654 52.0113C32.8682 52.109 32.8913 52.2047 32.9331 52.2911C32.9748 52.3775 33.034 52.4524 33.1062 52.5101C33.1785 52.5678 33.2618 52.6068 33.3498 52.624C33.4379 52.6413 33.5284 52.6364 33.6145 52.6097C37.147 51.5331 38.8151 54.1437 39.4948 51.0654C39.4589 47.3782 38.4369 34.1398 38.7002 31.0014C38.9635 27.8629 40.0572 19.3361 40.33 17.0627C40.5717 15.0871 36.7976 14.2064 35.8091 14.0105Z" fill="white"/>
<path opacity="0.2" d="M38.1383 20.4049C37.9828 21.5704 37.9229 26.2793 38.9497 28.545C39.122 26.9771 39.3469 25.1139 39.5647 23.3186L38.1383 20.4049Z" fill="#89B1E8"/>
<path d="M39.6052 40.7695L38.5856 40.9001L37.6834 42.6588C37.6339 42.754 37.6032 42.8594 37.5933 42.9684C37.5835 43.0773 37.5946 43.1872 37.626 43.2912L37.9514 44.373C38.0067 44.5582 38.123 44.7143 38.2779 44.8109C38.4327 44.9075 38.6149 44.9377 38.7891 44.8957L39.2438 44.7912C39.4109 44.7541 39.5605 44.6532 39.6657 44.5067C39.771 44.3602 39.825 44.1776 39.8182 43.9915L39.7895 43.0299C39.7895 43.0299 40.5984 40.989 39.6052 40.7695Z" fill="#FFB573"/>
<path d="M40.1652 16.1846C40.4907 17.2298 40.7922 18.262 41.0914 19.3073C41.3906 20.3526 41.6897 21.3979 41.9721 22.4431C42.2545 23.4884 42.5274 24.5572 42.7786 25.6469C42.9031 26.1931 43.018 26.7444 43.1281 27.3219C43.1783 27.612 43.2286 27.9073 43.2693 28.2209C43.2884 28.3829 43.31 28.5318 43.3219 28.7122L43.3435 28.9735L43.3554 29.2688C43.3602 29.368 43.3602 29.4674 43.3554 29.5667C43.3554 29.6712 43.3554 29.7705 43.3435 29.8515L43.3219 30.1128L43.2956 30.348C43.2621 30.6642 43.219 30.9517 43.1759 31.2391C43.0898 31.8088 42.9893 32.3575 42.8863 32.9011C42.6805 33.9882 42.4508 35.0517 42.2186 36.1101C41.9865 37.1684 41.74 38.2241 41.5006 39.2772L40.7827 42.4366L37.3172 41.4096C37.8533 39.3687 38.3415 37.2912 38.7939 35.2268C39.014 34.1815 39.2199 33.1572 39.4041 32.1354C39.4951 31.6128 39.5812 31.1163 39.6435 30.625C39.6794 30.3794 39.7081 30.1363 39.7272 29.9168C39.7458 29.7434 39.7522 29.5687 39.7464 29.3942V29.2844L39.7296 29.1433C39.7296 29.0545 39.7009 28.9369 39.6865 28.835C39.653 28.6155 39.61 28.3829 39.5621 28.1451C39.464 27.6695 39.3467 27.1782 39.2199 26.6843C38.9805 25.6939 38.6766 24.6905 38.3679 23.6922C37.7576 21.6958 37.0707 19.6862 36.3623 17.7316L40.1652 16.1846Z" fill="#89B1E8"/>
<path opacity="0.7" d="M40.1652 16.1846C40.4907 17.2298 40.7922 18.262 41.0914 19.3073C41.3906 20.3526 41.6897 21.3979 41.9721 22.4431C42.2545 23.4884 42.5274 24.5572 42.7786 25.6469C42.9031 26.1931 43.018 26.7444 43.1281 27.3219C43.1783 27.612 43.2286 27.9073 43.2693 28.2209C43.2884 28.3829 43.31 28.5318 43.3219 28.7122L43.3435 28.9735L43.3554 29.2688C43.3602 29.368 43.3602 29.4674 43.3554 29.5667C43.3554 29.6712 43.3554 29.7705 43.3435 29.8515L43.3219 30.1128L43.2956 30.348C43.2621 30.6642 43.219 30.9517 43.1759 31.2391C43.0898 31.8088 42.9893 32.3575 42.8863 32.9011C42.6805 33.9882 42.4508 35.0517 42.2186 36.1101C41.9865 37.1684 41.74 38.2241 41.5006 39.2772L40.7827 42.4366L37.3172 41.4096C37.8533 39.3687 38.3415 37.2912 38.7939 35.2268C39.014 34.1815 39.2199 33.1572 39.4041 32.1354C39.4951 31.6128 39.5812 31.1163 39.6435 30.625C39.6794 30.3794 39.7081 30.1363 39.7272 29.9168C39.7458 29.7434 39.7522 29.5687 39.7464 29.3942V29.2844L39.7296 29.1433C39.7296 29.0545 39.7009 28.9369 39.6865 28.835C39.653 28.6155 39.61 28.3829 39.5621 28.1451C39.464 27.6695 39.3467 27.1782 39.2199 26.6843C38.9805 25.6939 38.6766 24.6905 38.3679 23.6922C37.7576 21.6958 37.0707 19.6862 36.3623 17.7316L40.1652 16.1846Z" fill="white"/>
<path d="M31.154 13.8145C31.2066 13.814 31.2582 13.8299 31.3029 13.8603C31.3475 13.8907 31.3833 13.9343 31.4061 13.9861C31.429 14.0378 31.4379 14.0956 31.4318 14.1527C31.4257 14.2097 31.4049 14.2637 31.3718 14.3084C30.8022 15.0296 30.4432 16.02 29.7683 19.1976C28.9546 23.0311 27.2218 42.319 26.8964 51.7709C26.8947 51.8494 26.8776 51.9266 26.846 51.9972C26.8144 52.0678 26.7692 52.1301 26.7135 52.1798C26.6578 52.2294 26.5928 52.2653 26.5232 52.285C26.4535 52.3046 26.3808 52.3075 26.31 52.2935C24.6204 51.9538 23.462 52.8475 23.2777 51.6638C23.0743 50.3572 23.833 37.8766 25.2522 32.0074C25.0296 26.802 25.8337 16.3597 27.4396 14.9721C28.3108 14.2012 30.1632 13.8328 31.154 13.8145Z" fill="#89B1E8"/>
<path opacity="0.7" d="M31.154 13.8145C31.2066 13.814 31.2582 13.8299 31.3029 13.8603C31.3475 13.8907 31.3833 13.9343 31.4061 13.9861C31.429 14.0378 31.4379 14.0956 31.4318 14.1527C31.4257 14.2097 31.4049 14.2637 31.3718 14.3084C30.8022 15.0296 30.4432 16.02 29.7683 19.1976C28.9546 23.0311 27.2218 42.319 26.8964 51.7709C26.8947 51.8494 26.8776 51.9266 26.846 51.9972C26.8144 52.0678 26.7692 52.1301 26.7135 52.1798C26.6578 52.2294 26.5928 52.2653 26.5232 52.285C26.4535 52.3046 26.3808 52.3075 26.31 52.2935C24.6204 51.9538 23.462 52.8475 23.2777 51.6638C23.0743 50.3572 23.833 37.8766 25.2522 32.0074C25.0296 26.802 25.8337 16.3597 27.4396 14.9721C28.3108 14.2012 30.1632 13.8328 31.154 13.8145Z" fill="white"/>
<path d="M32.0851 16.4041C32.0851 16.4041 30.0173 22.7463 29.2898 28.0615C29.2324 29.5066 29.8618 32.3053 30.3716 33.5257C31.4366 30.9935 32.1019 29.5014 32.2072 28.0615C32.3771 25.8952 32.6571 16.4459 32.6571 16.4459L32.0851 16.4041Z" fill="#263238"/>
<path d="M36.4122 23.9485C36.3913 23.9477 36.3711 23.9395 36.3549 23.925C36.3387 23.9105 36.3272 23.8906 36.3223 23.8684C36.3174 23.8461 36.3194 23.8227 36.3278 23.8018C36.3363 23.7809 36.3508 23.7635 36.3692 23.7525L36.7617 23.5277C37.128 23.3219 37.4283 22.9991 37.6224 22.6023C37.8165 22.2055 37.8953 21.7535 37.8482 21.3065L37.4222 17.0941C37.3908 16.7801 37.2635 16.4868 37.0607 16.2614C36.858 16.0361 36.5916 15.8919 36.3047 15.852C36.0177 15.8122 35.7268 15.879 35.4788 16.0418C35.2309 16.2045 35.0404 16.4537 34.938 16.7491L33.5595 20.7081C33.411 21.1277 33.383 21.5867 33.4792 22.024C33.5754 22.4614 33.7912 22.8564 34.098 23.1567L34.4282 23.4833C34.4458 23.5028 34.4556 23.5291 34.4556 23.5565C34.4556 23.5838 34.4458 23.6101 34.4282 23.6296C34.4103 23.6488 34.3863 23.6595 34.3612 23.6595C34.3362 23.6595 34.3121 23.6488 34.2942 23.6296L33.9639 23.3056C33.6298 22.9761 33.3952 22.5435 33.2913 22.0652C33.1875 21.5868 33.2192 21.0853 33.3824 20.6271L34.7729 16.676C34.8916 16.3384 35.1106 16.0541 35.3949 15.8686C35.6792 15.6831 36.0123 15.6072 36.3408 15.6529C36.6693 15.6987 36.9743 15.8636 37.2068 16.1211C37.4393 16.3786 37.586 16.7139 37.6232 17.0732L38.0492 21.283C38.0996 21.7729 38.0121 22.2679 37.7983 22.7021C37.5845 23.1363 37.2546 23.489 36.8526 23.7133L36.4601 23.9354C36.4459 23.9454 36.4291 23.95 36.4122 23.9485Z" fill="#263238"/>
<path d="M37.5997 18.0138C37.5769 18.0141 37.5548 18.0051 37.5376 17.9888C37.5204 17.9724 37.5093 17.9497 37.5063 17.925C37.4507 17.5862 37.2931 17.2774 37.0586 17.0473C36.8241 16.8173 36.526 16.6792 36.2116 16.655C35.6803 16.5818 34.9575 16.7647 34.6679 17.5278C34.6638 17.5413 34.6571 17.5538 34.6484 17.5644C34.6397 17.575 34.629 17.5835 34.6172 17.5895C34.6053 17.5955 34.5924 17.5987 34.5794 17.599C34.5663 17.5994 34.5533 17.5968 34.5412 17.5914C34.5291 17.586 34.5181 17.578 34.509 17.5679C34.4998 17.5577 34.4926 17.5456 34.4879 17.5323C34.4832 17.519 34.481 17.5048 34.4815 17.4905C34.482 17.4763 34.4852 17.4623 34.4908 17.4494C34.6527 17.1077 34.9068 16.8285 35.2188 16.6498C35.5308 16.471 35.8855 16.4013 36.235 16.4501C36.5845 16.4988 36.9118 16.6637 37.1726 16.9224C37.4334 17.1811 37.6151 17.5211 37.693 17.8963C37.6964 17.9229 37.69 17.95 37.6752 17.9715C37.6604 17.9931 37.6384 18.0074 37.614 18.0112L37.5997 18.0138Z" fill="#263238"/>
<path d="M36.3111 15.8527C36.2986 15.8521 36.2864 15.8487 36.2752 15.8428C36.2639 15.8368 36.2538 15.8285 36.2456 15.8183C36.2373 15.808 36.231 15.7961 36.2271 15.7832C36.2231 15.7702 36.2216 15.7566 36.2226 15.743C36.2513 15.2334 36.1843 14.3057 35.7439 14.0653C35.7214 14.0525 35.7044 14.0304 35.6968 14.0039C35.6892 13.9775 35.6915 13.9488 35.7032 13.9242C35.715 13.8996 35.7352 13.8811 35.7594 13.8727C35.7837 13.8644 35.8099 13.8669 35.8325 13.8798C36.4691 14.2378 36.4116 15.6018 36.4021 15.756C36.4009 15.7817 36.3908 15.8059 36.374 15.8238C36.3571 15.8418 36.3346 15.8521 36.3111 15.8527Z" fill="#263238"/>
<path d="M34.5764 23.5877C34.5525 23.7837 34.44 23.9274 34.3227 23.9092C34.2055 23.8909 34.1289 23.7236 34.1528 23.5302C34.1768 23.3369 34.2868 23.1905 34.4041 23.2088C34.5214 23.2271 34.598 23.3944 34.5764 23.5877Z" fill="#263238"/>
<path d="M29.012 19.3518C28.8612 19.7673 28.5333 20.0182 28.294 19.9111C28.0547 19.8039 27.9613 19.3884 28.1121 18.9625C28.2629 18.5365 28.5908 18.2961 28.8301 18.4033C29.0694 18.5104 29.1604 18.9364 29.012 19.3518Z" fill="#263238"/>
<path d="M28.2251 19.0827H28.2059C28.1812 19.077 28.1596 19.061 28.1457 19.038C28.1318 19.015 28.1268 18.9869 28.1317 18.9599C28.4477 17.243 29.7544 14.5175 30.9055 13.7335C30.916 13.7237 30.9283 13.7164 30.9415 13.7122C30.9548 13.7081 30.9687 13.7071 30.9823 13.7093C30.996 13.7115 31.009 13.717 31.0206 13.7252C31.0321 13.7335 31.0419 13.7444 31.0492 13.7571C31.0565 13.7699 31.0612 13.7842 31.063 13.7992C31.0648 13.8141 31.0636 13.8293 31.0595 13.8437C31.0554 13.8581 31.0485 13.8713 31.0393 13.8825C31.0301 13.8937 31.0187 13.9026 31.0061 13.9086C29.8932 14.6743 28.6272 17.3057 28.3184 18.9965C28.3145 19.0205 28.303 19.0422 28.286 19.058C28.269 19.0737 28.2474 19.0825 28.2251 19.0827Z" fill="#263238"/>
<path d="M29.285 19.438C29.1749 19.796 28.8925 20.0181 28.6532 19.9319C28.4139 19.8457 28.3062 19.4824 28.4139 19.1218C28.5216 18.7612 28.8064 18.5417 29.0457 18.6279C29.285 18.7142 29.3951 19.0774 29.285 19.438Z" fill="white"/>
<path d="M29.3017 19.4746C29.1557 19.9163 28.8853 20.2168 28.701 20.1436C28.5167 20.0704 28.4856 19.6523 28.634 19.2081C28.7824 18.7639 29.0504 18.466 29.2347 18.5391C29.419 18.6123 29.4501 19.0304 29.3017 19.4746Z" fill="#263238"/>
<path d="M36.6253 23.8752C36.6037 24.0686 36.4888 24.2123 36.3716 24.1967C36.2543 24.181 36.1777 24.0085 36.2016 23.8151C36.2256 23.6218 36.3381 23.478 36.4553 23.4937C36.5726 23.5094 36.6492 23.6793 36.6253 23.8752Z" fill="#263238"/>
<path d="M50.196 12.5524C50.9954 14.9382 48.8701 16.1376 47.4773 19.6524C46.0844 23.1671 49.4445 27.3586 54.602 27.4501C59.7595 27.5416 59.9222 22.148 59.1229 18.2778C58.3235 14.4077 59.994 13.7779 59.6398 10.8224C59.1851 6.93925 54.0611 3.99681 52.0269 7.56119C50.2176 7.37565 49.4972 10.467 50.196 12.5524Z" fill="#263238"/>
<path d="M65.4712 44.6684V44.3652C65.4664 44.2198 65.4329 44.0772 65.3731 43.9471L64.5067 42.0813L63.492 41.8723C62.774 42.7163 63.492 44.3992 63.492 44.3992V44.6684C63.4921 44.8889 63.558 45.1033 63.6798 45.2792C63.8016 45.4551 63.9726 45.5828 64.1669 45.6431L64.3033 45.6875C64.4438 45.728 64.591 45.732 64.7332 45.6992C64.8753 45.6664 65.0085 45.5978 65.122 45.4987C65.2355 45.3997 65.3262 45.273 65.3869 45.1288C65.4475 44.9846 65.4764 44.8269 65.4712 44.6684Z" fill="#FFC3BD"/>
<path d="M61.1711 20.6663L61.5445 23.5251L61.937 26.3761C62.0662 27.3299 62.2026 28.2785 62.3414 29.2297L62.7555 32.0624L62.8057 32.342C62.8225 32.4335 62.8512 32.5511 62.8727 32.653L62.9445 32.9744L63.0283 33.3063C63.136 33.7453 63.2676 34.2 63.3825 34.6494C63.6218 35.551 63.897 36.463 64.1675 37.3698C64.7179 39.1807 65.2923 40.9995 65.905 42.7869L62.5209 44.0935L60.8265 38.5692C60.5465 37.6468 60.2617 36.7243 59.9912 35.7836C59.8572 35.3106 59.7232 34.8428 59.5964 34.3542L59.4982 33.9909L59.4049 33.612C59.3738 33.4814 59.3403 33.3664 59.3116 33.2227L59.223 32.7941L58.7228 29.9196C58.5633 28.9719 58.3965 28.0242 58.2226 27.0765L57.7105 24.2333L57.1768 21.4111L61.1711 20.6663Z" fill="#89B1E8"/>
<path opacity="0.6" d="M61.1711 20.6663L61.5445 23.5251L61.937 26.3761C62.0662 27.3299 62.2026 28.2785 62.3414 29.2297L62.7555 32.0624L62.8057 32.342C62.8225 32.4335 62.8512 32.5511 62.8727 32.653L62.9445 32.9744L63.0283 33.3063C63.136 33.7453 63.2676 34.2 63.3825 34.6494C63.6218 35.551 63.897 36.463 64.1675 37.3698C64.7179 39.1807 65.2923 40.9995 65.905 42.7869L62.5209 44.0935L60.8265 38.5692C60.5465 37.6468 60.2617 36.7243 59.9912 35.7836C59.8572 35.3106 59.7232 34.8428 59.5964 34.3542L59.4982 33.9909L59.4049 33.612C59.3738 33.4814 59.3403 33.3664 59.3116 33.2227L59.223 32.7941L58.7228 29.9196C58.5633 28.9719 58.3965 28.0242 58.2226 27.0765L57.7105 24.2333L57.1768 21.4111L61.1711 20.6663Z" fill="white"/>
<path d="M60.6322 20.4468C60.7447 21.8396 60.6442 25.3047 59.3638 33.8942H50.5087C50.6499 30.1626 50.6595 27.7846 49.1924 20.6637C49.1591 20.5035 49.1562 20.3377 49.1838 20.1762C49.2115 20.0148 49.2691 19.8613 49.3532 19.7252C49.4373 19.589 49.5461 19.4732 49.6728 19.3847C49.7995 19.2962 49.9414 19.237 50.0899 19.2107C50.9544 19.0557 51.8261 18.9519 52.7009 18.8998C54.041 18.7951 55.3863 18.7951 56.7264 18.8998C57.8273 19.0095 59.0215 19.2264 59.7443 19.3701C59.9797 19.4189 60.194 19.5507 60.3544 19.7451C60.5148 19.9395 60.6123 20.186 60.6322 20.4468Z" fill="#263238"/>
<path d="M53.0911 13.9504C53.3448 15.3641 53.5985 17.9564 52.6914 18.8997C52.6914 18.8997 53.8258 20.4049 55.5633 20.4049C57.3008 20.4049 56.7193 18.8997 56.7193 18.8997C55.2833 18.5234 55.312 17.3527 55.5633 16.2552L53.0911 13.9504Z" fill="#FFC3BD"/>
<path opacity="0.2" d="M54.0989 14.8911L55.5612 16.2526C55.4991 16.5095 55.4575 16.7718 55.4367 17.0365C54.8839 16.9503 54.0175 16.4355 53.8979 15.7796C53.8428 15.4686 54.051 15.0375 54.0989 14.8911Z" fill="black"/>
<path d="M51.567 11.1752C51.9044 13.5114 52.0026 14.507 53.1944 15.5993C54.9893 17.243 57.543 16.2787 57.8517 13.8798C58.1293 11.7214 57.5286 8.26151 55.3412 7.54811C54.8592 7.38806 54.3479 7.36515 53.8556 7.48154C53.3633 7.59794 52.9064 7.84977 52.5283 8.21315C52.1502 8.57652 51.8634 9.03938 51.6951 9.55779C51.5269 10.0762 51.4828 10.6329 51.567 11.1752Z" fill="#FFC3BD"/>
<path d="M51.9238 12.8581C53.1491 11.5332 53.5703 9.6909 53.4555 8.9383C54.6353 9.29631 55.5017 8.78935 55.4491 8.56984C56.2819 9.45832 57.7921 10.1613 57.6221 9.20485C57.4522 8.24842 56.3346 6.48453 54.0035 7.1143C51.6725 7.74408 50.775 10.3573 50.8085 11.4182C50.842 12.4792 51.9238 12.8581 51.9238 12.8581Z" fill="#263238"/>
<path d="M54.6367 11.4391C54.6535 11.6325 54.7588 11.7762 54.876 11.7658C54.9933 11.7553 55.0699 11.5881 55.0531 11.3973C55.0364 11.2065 54.9287 11.0602 54.8138 11.0707C54.6989 11.0811 54.6367 11.2484 54.6367 11.4391Z" fill="#263238"/>
<path d="M56.6263 11.2327C56.643 11.4235 56.7507 11.5698 56.8656 11.5567C56.9805 11.5437 57.0594 11.3816 57.0427 11.1909C57.0259 11.0001 56.9182 10.8538 56.8034 10.8642C56.6885 10.8747 56.6095 11.0419 56.6263 11.2327Z" fill="#263238"/>
<path d="M56.7549 10.8799L57.1641 10.7048C57.1641 10.7048 56.9775 11.0864 56.7549 10.8799Z" fill="#263238"/>
<path d="M56.0469 11.6404C56.2404 12.061 56.486 12.4506 56.7768 12.798C56.6936 12.8767 56.5957 12.9348 56.4899 12.9682C56.3841 13.0015 56.273 13.0095 56.1641 12.9914L56.0469 11.6404Z" fill="#ED847E"/>
<path d="M55.2734 13.8329C55.3602 13.8393 55.4474 13.8393 55.5342 13.8329C55.5478 13.8309 55.5601 13.8232 55.5686 13.8115C55.5771 13.7998 55.5811 13.785 55.5797 13.7701C55.5794 13.7628 55.5777 13.7556 55.5748 13.749C55.5718 13.7424 55.5675 13.7365 55.5623 13.7319C55.5571 13.7272 55.5511 13.7237 55.5446 13.7218C55.5381 13.7198 55.5313 13.7194 55.5246 13.7205C55.3069 13.748 55.0862 13.7193 54.8804 13.6367C54.6747 13.5541 54.4896 13.4199 54.34 13.2449C54.3307 13.2357 54.3188 13.2305 54.3063 13.23C54.2939 13.2296 54.2816 13.234 54.2719 13.2424C54.2621 13.2509 54.2554 13.2629 54.253 13.2763C54.2505 13.2897 54.2525 13.3035 54.2586 13.3154C54.3881 13.4706 54.5444 13.5962 54.7186 13.685C54.8927 13.7738 55.0813 13.8241 55.2734 13.8329Z" fill="#263238"/>
<path d="M51.0923 13.075C51.2521 13.498 51.5583 13.8351 51.9443 14.0131C52.4565 14.2431 52.7796 13.7518 52.691 13.1952C52.612 12.6726 52.2483 11.9487 51.7074 11.9592C51.5896 11.9654 51.4751 12.0033 51.3739 12.0693C51.2728 12.1354 51.188 12.2276 51.1272 12.3379C51.0665 12.4482 51.0315 12.5731 51.0254 12.7017C51.0193 12.8302 51.0423 12.9584 51.0923 13.075Z" fill="#FFC3BD"/>
<path d="M53.9547 10.4357C53.9753 10.4437 53.9976 10.4444 54.0187 10.4379C54.0397 10.4313 54.0583 10.4178 54.072 10.3991C54.3735 9.9941 54.9886 10.0333 54.9934 10.0333C55.0205 10.0348 55.0471 10.0247 55.0677 10.0052C55.0882 9.98574 55.101 9.95835 55.1034 9.92877C55.1048 9.91394 55.1033 9.89896 55.0991 9.88477C55.095 9.87057 55.0882 9.85745 55.0792 9.8462C55.0703 9.83495 55.0593 9.82581 55.047 9.81934C55.0347 9.81287 55.0214 9.80921 55.0077 9.80857C54.979 9.80857 54.2778 9.76153 53.9116 10.258C53.8945 10.2814 53.8865 10.3112 53.8892 10.3409C53.8919 10.3707 53.9051 10.3981 53.926 10.4174L53.9547 10.4357Z" fill="#263238"/>
<path d="M57.3462 10.1979C57.3689 10.1994 57.3914 10.1927 57.4102 10.1787C57.429 10.1648 57.4431 10.1444 57.4502 10.1209C57.4573 10.0973 57.457 10.0718 57.4495 10.0484C57.4419 10.025 57.4275 10.005 57.4084 9.99146C57.2745 9.88825 57.12 9.82137 56.9577 9.79638C56.7953 9.77138 56.6299 9.78899 56.475 9.84773C56.4499 9.85981 56.43 9.88215 56.4198 9.90998C56.4095 9.93781 56.4096 9.96893 56.42 9.99669C56.4252 10.0105 56.4329 10.0231 56.4426 10.0336C56.4524 10.0441 56.4639 10.0525 56.4766 10.0581C56.4893 10.0637 56.5029 10.0664 56.5166 10.0662C56.5303 10.066 56.5439 10.0628 56.5564 10.0568C56.6794 10.0121 56.8104 9.99987 56.9385 10.0212C57.0667 10.0426 57.1884 10.0969 57.2935 10.1796C57.3093 10.1907 57.3275 10.197 57.3462 10.1979Z" fill="#263238"/>
<path d="M64.8658 87.9922L67.07 87.8773L66.4166 82.4418L64.2148 82.5594L64.8658 87.9922Z" fill="#FFC3BD"/>
<g opacity="0.2">
<path d="M66.4171 82.4445L66.7545 85.2458L64.5503 85.3608L64.2129 82.5594L66.4171 82.4445Z" fill="black"/>
</g>
<path d="M59.3634 33.8942C59.3634 33.8942 62.1372 52.2518 63.2668 59.4093C64.4443 66.8516 67.096 84.3677 67.096 84.3677L64.181 84.8904C64.181 84.8904 60.2513 67.3559 58.6765 60.0652C56.9677 52.108 52.8274 41.4384 52.8705 33.9151L59.3634 33.8942Z" fill="#89B1E8"/>
<path opacity="0.2" d="M54.9104 39.5282C54.494 38.8671 53.6922 37.9394 53.0771 37.1763C53.6348 41.8539 55.2311 47.2815 56.6886 52.3929C57.0763 48.4992 56.8561 42.5935 54.9104 39.5282Z" fill="black"/>
<path d="M51.2676 87.6238H53.4502L53.5962 82.1048H51.4112L51.2676 87.6238Z" fill="#FFC3BD"/>
<path d="M53.5532 87.2631H51.1001C51.0576 87.2627 51.0165 87.2792 50.9843 87.3095C50.9521 87.3398 50.9312 87.3818 50.9254 87.4278L50.6454 89.5444C50.6404 89.5982 50.6457 89.6525 50.6611 89.7039C50.6765 89.7552 50.7016 89.8025 50.7347 89.8426C50.7679 89.8828 50.8083 89.9149 50.8536 89.9369C50.8988 89.9589 50.9477 89.9703 50.9972 89.9704C51.8516 89.9521 52.2632 89.8972 53.3426 89.8972C54.0055 89.8972 55.3769 89.973 56.2935 89.973C57.2101 89.973 57.2508 88.9852 56.8774 88.8938C55.1662 88.4939 54.4842 87.9399 53.917 87.4095C53.8149 87.3161 53.6863 87.2644 53.5532 87.2631Z" fill="#263238"/>
<g opacity="0.2">
<path d="M53.5938 82.1074L53.5196 84.9532H51.3369L51.4111 82.1074H53.5938Z" fill="black"/>
</g>
<path d="M56.8725 33.8942C56.8725 33.8942 55.987 52.4869 55.3887 59.7255C54.7641 67.2566 54.0126 84.3233 54.0126 84.3233H51.0593C51.0593 84.3233 50.5328 67.322 50.7386 59.8953C50.9612 51.7944 49.1782 41.4175 50.382 33.8942H56.8725Z" fill="#89B1E8"/>
<path d="M50.8034 84.4383L54.2665 84.5089L54.3191 82.204L50.7891 82.4444L50.8034 84.4383Z" fill="#263238"/>
<path d="M54.3716 87.6892C54.558 87.7079 54.7447 87.6562 54.9005 87.5428C54.9356 87.5086 54.9626 87.4654 54.9788 87.4171C54.9951 87.3688 55.0003 87.3168 54.9938 87.2658C54.9921 87.2351 54.9833 87.2053 54.9682 87.1793C54.9532 87.1532 54.9323 87.1318 54.9076 87.1169C54.6396 86.9549 53.7684 87.4409 53.6703 87.4984C53.6612 87.504 53.6538 87.5125 53.6491 87.5228C53.6444 87.533 53.6426 87.5445 53.644 87.5559C53.6453 87.5674 53.65 87.5782 53.6573 87.5867C53.6646 87.5951 53.6742 87.6008 53.6847 87.6029C53.9106 87.6556 54.1406 87.6844 54.3716 87.6892ZM54.7616 87.1953C54.7946 87.1943 54.8273 87.2015 54.8574 87.2162C54.8675 87.2219 54.8759 87.2305 54.8818 87.2411C54.8877 87.2517 54.8909 87.2639 54.8909 87.2763C54.8961 87.3094 54.8934 87.3435 54.8829 87.3751C54.8724 87.4067 54.8545 87.4348 54.8311 87.4566C54.6994 87.5873 54.3404 87.6108 53.857 87.5219C54.1392 87.3574 54.4452 87.2469 54.7616 87.1953Z" fill="#89B1E8"/>
<path d="M53.6941 87.6055H53.7156C53.9765 87.4774 54.491 86.9626 54.4503 86.6935C54.4503 86.6281 54.4001 86.5498 54.2565 86.5341C54.2051 86.5276 54.153 86.5328 54.1036 86.5495C54.0541 86.5661 54.0084 86.5938 53.9693 86.6308C53.6965 86.879 53.6462 87.5219 53.6438 87.548C53.6429 87.558 53.6444 87.5681 53.6482 87.5773C53.652 87.5864 53.6579 87.5944 53.6654 87.6003C53.6744 87.6046 53.6842 87.6063 53.6941 87.6055ZM54.2158 86.6386H54.2469C54.3403 86.6386 54.3474 86.6882 54.3474 86.7039C54.3738 86.8659 54.0243 87.2684 53.7587 87.4435C53.7792 87.1732 53.8762 86.9165 54.0363 86.7092C54.0863 86.6626 54.1501 86.6375 54.2158 86.6386Z" fill="#89B1E8"/>
<path d="M67.0436 87.2632H64.5905C64.5708 87.2619 64.5511 87.2653 64.5328 87.2733C64.5144 87.2812 64.4979 87.2935 64.4844 87.3092C64.471 87.325 64.4608 87.3438 64.4547 87.3643C64.4487 87.3848 64.4468 87.4065 64.4493 87.4278L64.5738 89.5445C64.5883 89.6595 64.6395 89.7652 64.7182 89.843C64.797 89.9209 64.8984 89.966 65.0046 89.9705C65.8566 89.9522 66.2586 89.8973 67.3356 89.8973C68.0009 89.8973 69.3866 89.9731 70.3032 89.9731C71.2199 89.9731 71.0787 88.9853 70.6814 88.8938C68.8936 88.494 68.1134 87.94 67.4361 87.4096C67.3221 87.3181 67.1851 87.267 67.0436 87.2632Z" fill="#263238"/>
<path d="M67.8616 87.6892C68.0488 87.7078 68.2363 87.6562 68.3929 87.5428C68.4278 87.5083 68.4545 87.4651 68.4707 87.4168C68.487 87.3686 68.4923 87.3168 68.4863 87.2658C68.4841 87.2349 68.4749 87.2051 68.4594 87.179C68.4439 87.153 68.4227 87.1316 68.3977 87.1169C68.1297 86.9549 67.2609 87.4409 67.1628 87.4984C67.1532 87.5037 67.1453 87.512 67.1402 87.5223C67.1351 87.5325 67.1329 87.5443 67.1341 87.5559C67.1361 87.5672 67.1409 87.5776 67.1481 87.5859C67.1553 87.5942 67.1646 87.6001 67.1748 87.6029C67.4007 87.6556 67.6307 87.6844 67.8616 87.6892ZM68.2517 87.1953C68.2847 87.1938 68.3176 87.2009 68.3475 87.2162C68.3578 87.2218 68.3666 87.2303 68.3729 87.2409C68.3793 87.2515 68.3829 87.2637 68.3834 87.2763C68.3875 87.3094 68.3842 87.3431 68.3738 87.3745C68.3634 87.4059 68.3461 87.4341 68.3235 87.4566C68.1895 87.5873 67.8305 87.6108 67.3471 87.5219C67.6295 87.3577 67.9354 87.2473 68.2517 87.1953Z" fill="#89B1E8"/>
<path d="M67.1874 87.6056H67.209C67.4675 87.4775 67.982 86.9627 67.9413 86.6936C67.9413 86.6282 67.8911 86.5498 67.7475 86.5342C67.6964 86.5277 67.6448 86.533 67.5957 86.5496C67.5467 86.5663 67.5014 86.5939 67.4627 86.6308C67.1874 86.8791 67.1372 87.5219 67.1348 87.5481C67.1345 87.558 67.1363 87.5679 67.14 87.5769C67.1438 87.586 67.1493 87.594 67.1563 87.6003C67.1662 87.6048 67.1768 87.6065 67.1874 87.6056ZM67.7068 86.6387H67.7379C67.8312 86.6387 67.8384 86.6883 67.8408 86.704C67.8647 86.866 67.5153 87.2685 67.2497 87.4435C67.2711 87.1735 67.368 86.9172 67.5273 86.7092C67.5775 86.6631 67.6412 86.6381 67.7068 86.6387Z" fill="#89B1E8"/>
<path d="M63.9372 85.0393L67.3572 84.4383L66.9719 82.4418L63.583 83.3146L63.9372 85.0393Z" fill="#263238"/>
<path d="M54.7734 11.0863L55.1827 10.9113C55.1827 10.9113 54.9984 11.2928 54.7734 11.0863Z" fill="#263238"/>
<path d="M50.3651 33.3271L50.1401 34.1947C50.109 34.26 50.1808 34.3306 50.2837 34.3306H59.4069C59.4882 34.3306 59.5528 34.2862 59.5576 34.2313L59.639 33.3663C59.639 33.3062 59.5744 33.2539 59.4882 33.2539H50.5111C50.483 33.2513 50.4548 33.2567 50.4293 33.2695C50.4037 33.2823 50.3816 33.3022 50.3651 33.3271Z" fill="#263238"/>
<path d="M51.603 34.4221H51.3637C51.3158 34.4221 51.2799 34.396 51.2823 34.3646L51.3948 33.2383C51.3948 33.2044 51.4403 33.1782 51.4882 33.1782H51.7275C51.7753 33.1782 51.8112 33.2044 51.8089 33.2383L51.694 34.3646C51.6916 34.396 51.6509 34.4221 51.603 34.4221Z" fill="#89B1E8"/>
<path d="M58.7322 34.4221H58.4929C58.445 34.4221 58.4068 34.396 58.4115 34.3646L58.524 33.2383C58.524 33.2044 58.5695 33.1782 58.6174 33.1782H58.8567C58.9046 33.1782 58.9405 33.2044 58.9381 33.2383L58.8256 34.3646C58.8208 34.396 58.7801 34.4221 58.7322 34.4221Z" fill="#89B1E8"/>
<path d="M55.1802 34.4221H54.9409C54.893 34.4221 54.8571 34.396 54.8595 34.3646L54.972 33.2383C54.972 33.2044 55.0174 33.1782 55.0653 33.1782H55.3046C55.3525 33.1782 55.3884 33.2044 55.3836 33.2383L55.2711 34.3646C55.2711 34.396 55.228 34.4221 55.1802 34.4221Z" fill="#89B1E8"/>
<path d="M52.3082 18.8213C50.9177 18.9598 48.7925 18.6724 48.8571 21.0007C48.9217 23.3291 48.5077 29.4962 48.6178 32.3837C48.7279 35.2713 48.0386 53.9686 49.1539 59.3883C49.3501 60.3421 56.5539 60.2193 57.425 60.1279V59.2681C57.425 59.2681 62.6591 58.4999 63.9538 58.7455C63.8413 55.4895 60.9431 39.0421 60.8306 34.422C60.7181 29.8019 61.1944 21.8631 61.1657 20.6035C61.137 19.344 58.8442 18.79 57.4394 18.8213C57.7505 19.9581 57.0636 22.093 55.9651 24.4736C53.2631 21.5991 52.4662 20.1723 52.3082 18.8213Z" fill="#89B1E8"/>
<path opacity="0.7" d="M52.3082 18.8213C50.9177 18.9598 48.7925 18.6724 48.8571 21.0007C48.9217 23.3291 48.5077 29.4962 48.6178 32.3837C48.7279 35.2713 48.0386 53.9686 49.1539 59.3883C49.3501 60.3421 56.5539 60.2193 57.425 60.1279V59.2681C57.425 59.2681 62.6591 58.4999 63.9538 58.7455C63.8413 55.4895 60.9431 39.0421 60.8306 34.422C60.7181 29.8019 61.1944 21.8631 61.1657 20.6035C61.137 19.344 58.8442 18.79 57.4394 18.8213C57.7505 19.9581 57.0636 22.093 55.9651 24.4736C53.2631 21.5991 52.4662 20.1723 52.3082 18.8213Z" fill="white"/>
<path opacity="0.2" d="M49.6622 24.343L48.7719 25.0303C48.7025 27.0424 48.6092 29.2976 48.5996 31.0406C49.4277 29.0415 49.8944 26.1566 49.6622 24.343Z" fill="#89B1E8"/>
<path d="M52.4976 22.2551C52.4524 22.3284 52.4037 22.3991 52.3516 22.4668L52.3014 22.5295L52.2751 22.5608L52.2272 22.6157L52.1315 22.7281L51.94 22.9606C51.8108 23.1148 51.6863 23.2742 51.5619 23.4362C51.313 23.7603 51.0736 24.0904 50.8439 24.4266C50.3745 25.0981 49.9375 25.7959 49.5348 26.5172C48.7433 27.8487 48.1715 29.3213 47.8451 30.8681C47.7848 31.2132 47.7472 31.5625 47.7326 31.9134C47.7475 32.088 47.7939 32.2576 47.8691 32.4125C48.1729 33.1149 48.5384 33.7836 48.9604 34.409C49.4031 35.0989 49.9057 35.7705 50.4203 36.4342C50.6788 36.7687 50.9468 37.0927 51.2172 37.4141C51.4877 37.7356 51.7701 38.0648 52.0333 38.3497L49.4534 41.0726C49.1399 40.6989 48.8623 40.3592 48.5727 40.0012L47.7279 38.9219C47.1678 38.1981 46.6294 37.4455 46.098 36.6563C45.5212 35.8228 45.0225 34.9281 44.6094 33.9857C44.4886 33.6937 44.3855 33.3934 44.3007 33.0867C44.2509 32.9041 44.2117 32.7182 44.1834 32.5301C44.1651 32.4221 44.1523 32.313 44.1451 32.2035C44.1355 32.0888 44.1315 31.9737 44.1332 31.8585C44.1388 31.2974 44.1828 30.7375 44.2648 30.1835C44.4305 29.1369 44.6985 28.1128 45.0642 27.1287C45.4082 26.1969 45.808 25.2908 46.2608 24.4162C46.7011 23.5538 47.1846 22.7307 47.6848 21.9258C47.9385 21.5234 48.1969 21.1288 48.4674 20.7394L48.8766 20.1567L49.0896 19.864L49.1973 19.7177L49.2524 19.6471L49.2763 19.6132L49.2428 19.655C49.1997 19.7151 49.159 19.7752 49.1207 19.8379L52.4976 22.2551Z" fill="#89B1E8"/>
<path opacity="0.7" d="M52.4976 22.2551C52.4524 22.3284 52.4037 22.3991 52.3516 22.4668L52.3014 22.5295L52.2751 22.5608L52.2272 22.6157L52.1315 22.7281L51.94 22.9606C51.8108 23.1148 51.6863 23.2742 51.5619 23.4362C51.313 23.7603 51.0736 24.0904 50.8439 24.4266C50.3745 25.0981 49.9375 25.7959 49.5348 26.5172C48.7433 27.8487 48.1715 29.3213 47.8451 30.8681C47.7848 31.2132 47.7472 31.5625 47.7326 31.9134C47.7475 32.088 47.7939 32.2576 47.8691 32.4125C48.1729 33.1149 48.5384 33.7836 48.9604 34.409C49.4031 35.0989 49.9057 35.7705 50.4203 36.4342C50.6788 36.7687 50.9468 37.0927 51.2172 37.4141C51.4877 37.7356 51.7701 38.0648 52.0333 38.3497L49.4534 41.0726C49.1399 40.6989 48.8623 40.3592 48.5727 40.0012L47.7279 38.9219C47.1678 38.1981 46.6294 37.4455 46.098 36.6563C45.5212 35.8228 45.0225 34.9281 44.6094 33.9857C44.4886 33.6937 44.3855 33.3934 44.3007 33.0867C44.2509 32.9041 44.2117 32.7182 44.1834 32.5301C44.1651 32.4221 44.1523 32.313 44.1451 32.2035C44.1355 32.0888 44.1315 31.9737 44.1332 31.8585C44.1388 31.2974 44.1828 30.7375 44.2648 30.1835C44.4305 29.1369 44.6985 28.1128 45.0642 27.1287C45.4082 26.1969 45.808 25.2908 46.2608 24.4162C46.7011 23.5538 47.1846 22.7307 47.6848 21.9258C47.9385 21.5234 48.1969 21.1288 48.4674 20.7394L48.8766 20.1567L49.0896 19.864L49.1973 19.7177L49.2524 19.6471L49.2763 19.6132L49.2428 19.655C49.1997 19.7151 49.159 19.7752 49.1207 19.8379L52.4976 22.2551Z" fill="white"/>
<path opacity="0.3" d="M55.9678 24.4736C56.2191 30.0502 57.5832 49.4974 57.4277 59.2681L57.8441 59.208C57.8441 59.208 57.1979 44.1822 56.9059 37.6075C56.614 31.0327 55.9678 24.4736 55.9678 24.4736Z" fill="#89B1E8"/>
<path opacity="0.3" d="M51.8323 38.3967L49.2763 41.4175C49.2763 42.4314 48.6277 44.4592 50.346 45.1962C52.0644 45.9331 52.1099 40.5865 51.8323 38.3967Z" fill="#89B1E8"/>
<path opacity="0.3" d="M60.1657 38.3026L61.2906 41.3809C61.3241 42.4262 61.652 44.5168 60.9866 45.3138C60.3213 46.1108 60.1275 40.5682 60.1657 38.3026Z" fill="#89B1E8"/>
<path d="M57.3728 26.4152L60.1801 26.3943C60.2081 26.3956 60.236 26.3903 60.2619 26.3788C60.2878 26.3672 60.3112 26.3496 60.3303 26.3273C60.3494 26.3049 60.3638 26.2783 60.3726 26.2493C60.3814 26.2203 60.3843 26.1895 60.3812 26.1591L60.2256 24.7062C60.2163 24.6433 60.1874 24.5858 60.1438 24.5434C60.1002 24.5011 60.0446 24.4764 59.9863 24.4736L57.1766 24.4919C57.1487 24.491 57.121 24.4966 57.0953 24.5084C57.0696 24.5201 57.0464 24.5377 57.0274 24.5599C57.0084 24.5822 56.9939 24.6086 56.985 24.6374C56.976 24.6662 56.9728 24.6968 56.9756 24.7271L57.1311 26.1827C57.1409 26.2458 57.1703 26.3033 57.2143 26.3456C57.2583 26.388 57.3142 26.4125 57.3728 26.4152Z" fill="white" stroke="#89B1E8" stroke-width="0.5" stroke-miterlimit="10"/>
</svg>
